<svg width="1921" height="1022" viewBox="0 0 1921 1022" fill="none" xmlns="http://www.w3.org/2000/svg">
<path d="M843.522 768.595L786.513 896.694L773.5 1017H1463.81H1548.7H1652.5H1765.58H1812.68H1857.91H1920.5V387.76H1894.47L1857.91 404.205L1830.65 420.65L1812.68 364.39L1778.6 275.24L1765.58 262.257H1756.29L1748.23 275.24L1733.98 313.324L1713.53 364.39L1704.24 379.104H1696.18L1666.44 313.324L1632.36 211.191L1548.7 0L1531 44.5002L1553.5 93.0003L1564.5 120.5L1567 154.501L1559 270.001L1558 284.501L1547.5 308.501L1542 315.501L1543 265.501L1544.5 207.501L1550 179.001L1551.5 147.001L1528 99.0004L1520 61.5002L1496.65 110.788L1468.14 196.476L1432.82 251.005L1381.39 313.324L1285.34 440.557L1251.26 522.783L1219.66 562.598L1183.1 577.312L1149.02 598.085L1106.26 562.598L1065.98 522.783L1054.21 512.397H1046.15L1022.61 547.018L942.049 672.521L880.082 718.394L843.522 768.595Z" fill="#D9D9D9"/>
<path d="M843.522 768.595L786.513 896.694L773.5 1017H1463.81H1548.7H1652.5H1765.58H1812.68H1857.91H1920.5V387.76H1894.47L1857.91 404.205L1830.65 420.65L1812.68 364.39L1778.6 275.24L1765.58 262.257H1756.29L1748.23 275.24L1733.98 313.324L1713.53 364.39L1704.24 379.104H1696.18L1666.44 313.324L1632.36 211.191L1548.7 0L1531 44.5002L1553.5 93.0003L1564.5 120.5L1567 154.501L1559 270.001L1558 284.501L1547.5 308.501L1542 315.501L1543 265.501L1544.5 207.501L1550 179.001L1551.5 147.001L1528 99.0004L1520 61.5002L1496.65 110.788L1468.14 196.476L1432.82 251.005L1381.39 313.324L1285.34 440.557L1251.26 522.783L1219.66 562.598L1183.1 577.312L1149.02 598.085L1106.26 562.598L1065.98 522.783L1054.21 512.397H1046.15L1022.61 547.018L942.049 672.521L880.082 718.394L843.522 768.595Z" fill="url(#paint0_linear_20_368)"/>
<path d="M1616 442.5L1696 379H1704L1623.5 473C1613.9 474.2 1587 532.5 1579.5 532.5C1562.67 539.5 1527.1 557.4 1519.5 573C1511.9 588.6 1565.33 612.167 1593 622L1814 703.5C1840 717.833 1890.9 758.5 1886.5 806.5C1882.1 854.5 1831.33 886.5 1806.5 896.5L1638.5 963C1628.83 967.667 1603.8 978.6 1581 985C1558.2 991.4 1557.83 1008.67 1560.5 1016.5H1257.5C1265.5 1007.5 1277.6 971.6 1344 938C1410.4 904.4 1477.33 889.667 1502.5 886.5L1685 846.5C1700.5 836.5 1731.8 811.7 1733 792.5C1734.2 773.3 1709.17 760.5 1696.5 756.5L1544 725.5L1420 697C1406.83 692.167 1380 675.2 1378 646C1376 616.8 1422.17 573.167 1445.5 555L1538 497.5L1616 442.5Z" fill="#89BFFF"/>
<path d="M841 787L784.5 894L775.5 936.5" stroke="#6D6D6D" stroke-width="3"/>
<path d="M1134.25 575.224L1195.4 577.135L1170.56 586.69L1147.63 598.157L1145.72 594.335L1141.9 588.601L1136.16 579.046L1134.25 575.224Z" fill="#89BFFF"/>
<path d="M851.701 846.214C782.612 797.522 887.783 701.5 903.247 692.392C918.711 683.284 935 678 935 678C906.334 718.132 885.321 747.644 908.749 775.884C983.279 861.881 1075.01 764.243 1189.67 858.059C1304.33 951.874 1126.69 1017 1053.5 1017H984H832.5L1.00012 1020.28L770.258 929.197C770.258 929.197 915.102 906.933 943.453 906.933C971.803 906.933 1082.11 912.499 1055.31 865.442C1028.5 818.384 902.136 882.03 851.701 846.214Z" fill="#89BFFF"/>
<path d="M1134.25 575.224L1195.4 577.135L1170.56 586.69L1147.63 598.157L1145.72 594.335L1141.9 588.601L1136.16 579.046L1134.25 575.224Z" stroke="#89BFFF"/>
<path d="M851.701 846.214C782.612 797.522 887.783 701.5 903.247 692.392C918.711 683.284 935 678 935 678C906.334 718.132 885.321 747.644 908.749 775.884C983.279 861.881 1075.01 764.243 1189.67 858.059C1304.33 951.874 1126.69 1017 1053.5 1017H984H832.5L1.00012 1020.28L770.258 929.197C770.258 929.197 915.102 906.933 943.453 906.933C971.803 906.933 1082.11 912.499 1055.31 865.442C1028.5 818.384 902.136 882.03 851.701 846.214Z" stroke="#89BFFF"/>
<path d="M1518.5 47.0002C1521 32.5001 1522.54 57.2731 1523.5 61.0002C1524.93 66.5519 1523.78 74.6347 1524.35 80.3593C1524.91 85.9884 1526.35 92.1244 1527.81 97.5829C1529.75 104.826 1533.27 110.768 1537.07 117.249C1539.03 120.584 1540.81 124.065 1542.97 127.273C1545.24 130.629 1546.42 135.125 1548.06 138.823C1549.17 141.328 1550.4 143.503 1550.45 146.303C1550.47 147.343 1550.33 148.473 1550.48 149.508C1551.83 158.969 1550.63 168.727 1549.94 178.155C1549.78 180.397 1548.79 182.257 1548.6 184.49C1548.44 186.262 1547.83 188.134 1547.27 189.807C1546.56 191.94 1546.96 195.102 1545.77 196.88C1544.37 198.982 1545.77 200.831 1545.19 203.164C1543.76 208.876 1544.58 215.09 1543.69 220.896C1543.11 224.622 1543.58 228.863 1543.58 232.599C1543.58 237.423 1542.67 241.939 1542.67 246.795C1542.67 253.983 1543.13 260.995 1543.13 268.115C1543.13 272.453 1542.67 276.732 1542.67 281.065C1542.67 285.931 1542.42 290.717 1542.01 295.566C1541.69 299.289 1541.75 303.027 1541.75 306.76C1541.75 309.345 1540.77 314.46 1541.96 316.962C1542.22 317.527 1544.48 313.522 1544.7 312.993C1545.16 311.925 1546.18 311.416 1546.79 310.449C1548.41 307.862 1549.2 304.637 1550.4 301.85C1553.22 295.334 1557.89 289.005 1559.05 281.904C1560.15 275.226 1560.07 268.47 1560.07 261.729C1560.07 256.329 1560.78 251.05 1560.96 245.676C1561.11 241.418 1561 237.256 1561.44 233.006C1562.02 227.494 1561.9 221.978 1561.9 216.444C1561.9 212.964 1562.72 209.77 1562.82 206.395C1563.12 196.47 1565.79 186.671 1566 176.756C1566.18 168.319 1566.48 159.942 1566.48 151.493C1566.48 147.049 1566.48 142.605 1566.48 138.162C1566.48 135.985 1566.95 133.116 1566.28 130.987C1565.39 128.162 1564.69 126.041 1564.65 123.05C1564.61 120.152 1564.24 116.94 1563.23 114.221C1560.14 105.993 1555.24 98.5664 1551.73 90.5357C1549.78 86.0945 1548.6 81.6819 1546.89 77.2046C1545.91 74.6323 1544.2 72.4512 1543.36 69.8266C1541.85 65.1308 1539.85 60.4197 1537.56 56.063C1536.12 53.3356 1534.27 50.3619 1532.42 47.8964C1531.57 46.7714 1531.28 45.1932 1530.41 43.9784C1528.2 40.9199 1531 35.5001 1531 35.5001C1529.72 33.083 1546 3 1546 3" stroke="black" stroke-opacity="0.5" stroke-width="3" stroke-linecap="square"/>
<path d="M1255 1020.5C1259.71 1012.55 1272 992 1272 992C1272 992 1279.95 981.555 1286 977.016C1290.9 973.339 1338.92 938.964 1343.5 935.093L1386.5 916.5C1386.5 916.5 1407.5 913 1429 901C1450.5 889 1368.49 829.585 1366.28 822.626C1364.8 817.961 1362.13 813.432 1361 808.73C1356.88 791.58 1345.34 775.672 1337.42 760.038C1333.01 751.322 1327.7 743.284 1321.63 735.633C1310.62 721.756 1302.58 707.089 1294.55 691.394C1288.75 680.052 1281.76 670.24 1277.57 657.963C1276.41 654.57 1274.19 639.376 1269.02 639.376C1266.62 639.376 1263.75 641.419 1262.84 643.533C1261.7 646.189 1261.76 649.325 1261.48 652.143C1261.08 656.066 1258.8 659.435 1258.45 663.426C1257.81 670.58 1258.72 677.815 1258.09 684.981C1257.32 693.852 1255.56 702.658 1254.29 711.465C1252.76 722.137 1251.95 732.725 1249.78 743.293C1248.27 750.617 1247.9 759.985 1243.36 766.333C1241.5 768.939 1237.12 752.254 1236.95 750.953C1234.67 733.273 1225.99 716.596 1216.76 701.726C1213.87 697.064 1211.82 691.932 1208.69 687.356C1206.12 683.606 1202.93 680.614 1200.61 676.608C1194.56 666.165 1185.62 658.518 1178.76 648.877C1174.44 642.813 1167 637.655 1161.66 632.31C1155.94 626.598 1151.96 616.872 1147.41 610.042C1142.33 602.428 1137.31 594.972 1132.44 587.121C1129.67 582.649 1128.05 577.179 1124.72 573.107C1122.87 570.846 1121.32 569.389 1120.39 566.576C1115.05 550.561 1097.84 539.733 1086.84 528.156C1082.49 523.585 1047.33 495.271 1043.96 499.95C1042.62 501.823 1043.08 504.163 1041.41 506.245C1040.35 507.565 1039.64 509.864 1039.27 511.53C1038.59 514.6 1036.44 517.56 1036.01 520.615C1034.16 533.526 1023.65 547.78 1016.71 558.618C1008.91 570.802 1000.9 582.635 993.432 594.96C991.041 598.905 989.627 603.437 987.197 607.429C984.951 611.118 980.955 614.812 979.596 618.89C978.45 622.326 979.013 626.033 977.696 629.638C976.525 632.843 973.613 634.08 972.351 637.12C969.902 643.021 926 690.5 926 690.5C920.788 697.232 914.59 707.787 908.814 714C899.934 723.553 895.575 738.272 895 751.5C894.569 761.421 901.993 768.058 907 777C910.604 783.437 925.64 790.547 930.5 796C937.901 804.304 948.313 808.259 958.5 811.937C964.628 814.15 978.693 814.115 985 815.5C996.354 817.992 999.1 815.904 1010.5 817.5C1023.92 819.379 1032.47 813.481 1045.98 813.481C1061.58 813.481 1080.62 810.183 1095.68 815.203C1101.27 817.065 1106.43 818.08 1112.13 819.063C1115.88 819.708 1119.26 823.45 1122.58 825.298C1130.95 829.946 1138.13 837.452 1147.17 840.796C1165.72 847.662 1180.18 863.468 1196.1 874.762C1207.95 883.177 1224.13 898.002 1224.13 913.419C1224.13 920.5 1221.61 928.285 1219.85 935.093C1218.02 942.165 1212.57 948.168 1207.56 953.441C1204.24 956.931 1202.77 961.61 1199.3 965.021C1192.38 971.841 1182.31 978.216 1173.71 982.597C1161.39 988.876 1155.19 995.506 1142.5 1001C1136.64 1003.54 1123.5 1006.5 1119.5 1007.5C1114.09 1008.48 1063 1019.5 1059 1020" stroke="black" stroke-opacity="0.5" stroke-width="3" stroke-linecap="round"/>
<path d="M1155.27 601.979C1164.83 596.246 1189.31 585.861 1195.4 584.779C1210.35 582.128 1192.7 580.726 1204.96 573.313C1217.33 565.831 1229.48 567.409 1237.63 555.192C1243.82 545.9 1248.89 534.061 1253.1 523.535C1259.04 508.684 1269.99 498.16 1278.28 483.244C1288.05 465.654 1301.11 447.05 1313.53 430.723C1326.55 413.612 1343.32 397.91 1348.43 377.482C1351.74 364.246 1369.55 354.041 1370.5 343.001M1491 125C1496.13 96.768 1513 78.4003 1518 49.9002M1548.5 4.5C1552 6.50001 1553.49 23.3285 1558.15 30.6954C1563.98 39.8898 1568.38 50.4845 1575.5 58.5002C1599.4 85.3876 1592.95 128.712 1608.16 160.92C1615.87 177.253 1616.56 194.985 1624.7 211.283C1631.33 224.525 1635.84 238.712 1639.81 253.013C1643.41 265.977 1652.04 276.152 1652.04 289.706C1652.04 309.035 1668.23 320.463 1668.23 338.271C1668.23 349.38 1667.22 355.967 1675.43 364.172C1683.35 372.099 1693.5 378 1706 378C1712.16 381.078 1722.4 314.658 1726.51 306.434C1733.16 293.126 1736.04 238.443 1760.68 263.086C1768.25 270.648 1780.24 283.215 1781.73 293.663C1784.33 311.88 1795.5 337.192 1808 348.5C1820.14 359.488 1826.3 395.498 1829.5 411.5C1832.28 425.42 1905.09 384.272 1920 388" stroke="black" stroke-opacity="0.5" stroke-width="3" stroke-linecap="square"/>
<path d="M1499.95 207.551C1499.95 276.587 1443.99 332.552 1374.95 332.552C1311.93 327.561 1256.28 271.33 1249.95 207.551C1275.42 126.279 1324.97 73.3967 1374.95 82.5507C1436.21 94.8394 1493.74 148.335 1499.95 207.551Z" fill="#F98080"/>
<path d="M1459.03 100.62C1470.58 105.57 1480.75 118.747 1489.5 127.5C1491.5 129.5 1491.26 134.133 1495.77 139.429C1498.69 142.867 1500.71 147.914 1503.51 151.675C1505.07 153.781 1508.35 156.047 1509.36 158.249C1512.98 166.087 1519.18 175.614 1519.18 184.271C1519.18 193.834 1519.99 203.823 1518.37 213.266C1516.36 224.907 1515.9 235.15 1511.88 246.402C1507.2 259.523 1498.84 269.746 1492.34 282.06C1480.75 304.03 1458.46 314.944 1437.78 327.082C1432.85 329.972 1425.77 333.562 1420.31 335.186C1416.03 336.458 1411.29 340.111 1406.98 340.408C1396.53 341.129 1385.75 340.408 1375.29 340.408C1356.59 340.408 1343.82 333.362 1327.94 324.597L1327.38 324.29C1319.43 319.901 1315.4 312.241 1307.57 307.992C1299.43 303.573 1293.33 296.206 1285.06 291.694C1282.13 290.095 1272.87 285.158 1271.56 282.42C1270.13 279.457 1266.69 278.279 1264.35 275.936C1262.29 273.876 1260.89 269.952 1258.86 268.373C1253.55 264.244 1249.21 253.515 1247.15 246.672C1245.74 241.957 1242.02 236.456 1242.02 231.815C1242.02 225.79 1239.16 217.941 1240.58 212.275C1242.49 204.642 1248.1 197.855 1248.5 189.674C1249.03 179.254 1258.23 169.532 1258.23 158.879C1258.23 151.337 1262.58 146.055 1265.52 139.519C1267.79 134.472 1271.6 134.232 1275.16 130.335C1277.71 127.543 1278.2 123.842 1280.56 121.24C1285.69 115.599 1289.31 108.471 1293.26 102.331C1296.12 97.8729 1303.46 90.8054 1308.74 90.8054C1312.35 90.8054 1328.48 86.9023 1330.8 83.6019C1336.88 74.9938 1356.77 76.2183 1366.82 76.2183C1376.73 76.2183 1386.55 75.5612 1395.91 79.4599C1407.77 84.4039 1422.79 81.159 1434.9 85.0426C1443.99 87.9584 1450.4 96.923 1459.03 100.62Z" stroke="black" stroke-opacity="0.5" stroke-width="3" stroke-linecap="round"/>
<defs>
<linearGradient id="paint0_linear_20_368" x1="1382" y1="1751" x2="1115.5" y2="509" gradientUnits="userSpaceOnUse">
<stop stop-color="#557D2A"/>
<stop offset="0.616422" stop-color="#3B9E03" stop-opacity="0.363631"/>
<stop offset="1" stop-color="#126704" stop-opacity="0"/>
</linearGradient>
</defs>
</svg>
