<svg width="1353" height="715" viewBox="0 0 1353 715" fill="none" xmlns="http://www.w3.org/2000/svg">
<path opacity="0.1" d="M384.875 808L-58.3137 364.585C-68.9968 353.895 -75 339.387 -75 324.268C-75 309.149 -68.9969 294.64 -58.3137 283.95L22.256 203.327C32.9391 192.637 47.4254 186.63 62.5473 186.63C77.6564 186.63 92.1425 192.637 102.826 203.327L384.878 485.513L1175.17 -305.303C1185.87 -315.993 1200.34 -322 1215.45 -322C1230.56 -322 1245.06 -315.993 1255.74 -305.303L1336.31 -224.68C1347 -213.99 1353 -199.481 1353 -184.362C1353 -169.243 1347 -154.735 1336.31 -144.045L384.875 808Z" fill="#126704"/>
</svg>
