<svg width="37" height="40" viewBox="0 0 37 40" fill="none" xmlns="http://www.w3.org/2000/svg">
<path d="M25.3813 4.35547C22.5166 4.35547 19.9742 5.58902 18.2517 7.70925C16.5292 5.58902 13.9867 4.35547 11.122 4.35547C8.62699 4.35876 6.23499 5.44148 4.47072 7.36614C2.70645 9.2908 1.71396 11.9003 1.71094 14.6221C1.71094 25.875 16.7987 34.8661 17.4403 35.2441C17.6897 35.3906 17.9685 35.4673 18.2517 35.4673C18.5349 35.4673 18.8137 35.3906 19.063 35.2441C19.7047 34.8661 34.7924 25.875 34.7924 14.6221C34.7894 11.9003 33.7969 9.2908 32.0326 7.36614C30.2684 5.44148 27.8764 4.35876 25.3813 4.35547ZM24.5985 26.5004C22.6125 28.3388 20.4896 29.9934 18.2517 31.447C16.0138 29.9934 13.8908 28.3388 11.9049 26.5004C8.8149 23.6086 5.13316 19.1986 5.13316 14.6221C5.13316 12.8894 5.76413 11.2276 6.88726 10.0024C8.0104 8.77713 9.5337 8.0888 11.122 8.0888C13.6602 8.0888 15.7848 9.55102 16.6675 11.9061C16.7959 12.2495 17.0152 12.5433 17.2974 12.7501C17.5795 12.9569 17.9118 13.0673 18.2517 13.0673C18.5916 13.0673 18.9238 12.9569 19.206 12.7501C19.4881 12.5433 19.7074 12.2495 19.8359 11.9061C20.7185 9.55102 22.8432 8.0888 25.3813 8.0888C26.9697 8.0888 28.493 8.77713 29.6161 10.0024C30.7392 11.2276 31.3702 12.8894 31.3702 14.6221C31.3702 19.1986 27.6885 23.6086 24.5985 26.5004Z" fill="#FF6161"/>
</svg>
