<svg width="979" height="754" viewBox="0 0 979 754" fill="none" xmlns="http://www.w3.org/2000/svg">
<path d="M33.5738 221.501C55.071 249.193 88.6796 267.013 126.45 267.013C151.417 267.013 174.564 259.227 193.598 245.951C240.845 201.808 304.296 179.807 374.057 179.807C376.645 179.807 379.237 179.799 381.83 179.791L381.842 179.791C406.825 179.714 431.94 179.636 454.538 186.703C454.063 186.12 453.585 185.539 453.105 184.96C406.148 128.368 335.283 92.3279 256 92.3279C160.76 92.3279 77.668 144.336 33.5738 221.501Z" fill="url(#paint0_linear_20_144)"/>
<path d="M126.45 369.39C88.6796 369.39 55.071 351.57 33.5738 323.878C12.0765 296.186 7.79746 285.377 7.79746 285.377C2.70534 305.516 0 326.606 0 348.328C0 455.895 102.026 572.258 185.948 667.974C212.332 698.066 236.927 726.118 256 751.213C275.072 726.119 299.666 698.068 326.049 667.977L326.051 667.975L326.052 667.974C409.974 572.258 512 455.895 512 348.328C512 348.328 495.213 302.164 454.538 289.079C413.863 275.995 373.508 276.984 373.508 276.984C326.692 276.984 290.194 290.515 252.118 311.898C238.143 319.747 223.919 328.666 208.93 338.349C203.905 341.596 198.826 344.917 193.598 348.328C167.869 365.115 151.417 369.39 126.45 369.39Z" fill="url(#paint1_linear_20_144)"/>
<path d="M200.915 75.3541L187.174 58.4644L163.238 88.9958L182.726 100.689L200.915 75.3541Z" fill="#6D6D6D"/>
<path fill-rule="evenodd" clip-rule="evenodd" d="M381.902 163.672L326.289 93.5431L350.324 58.4644L368.513 81.596L354.221 100.689L381.505 116.929L410.087 134.468L433.65 164L419.672 163.672H381.902Z" fill="white"/>
<path d="M410.087 134.468L368.513 81.596L354.221 100.689L381.505 116.929L410.087 134.468Z" fill="#6D6D6D"/>
<path d="M390.295 167.869L381.902 163.672L369.17 163.701L390.295 167.869Z" fill="#6D6D6D"/>
<path fill-rule="evenodd" clip-rule="evenodd" d="M326.289 93.5431L254.182 0L250.509 5.19684L281.466 51.9684L255.482 88.9958L369.311 163.672L369.17 163.701L381.902 163.672L326.289 93.5431Z" fill="#6D6D6D"/>
<path d="M172.1 37.0275L137.021 85.7478L77.9557 164.381L104.918 184.656L216.113 168.697L272.787 184.656L276.984 167.869L321.607 163.807L369.17 163.701L369.311 163.672L255.482 88.9958L281.466 51.9684L250.509 5.19684L200.915 75.3541L182.726 100.689L163.238 88.9958L187.174 58.4644L172.1 37.0275Z" fill="white"/>
<path d="M321.607 163.807L343.742 129.119L369.311 163.672L331.541 172.066L321.607 163.807Z" fill="#126704"/>
<path d="M368.098 146.455L386.098 122.131L419.672 163.672L390.295 167.869L381.902 163.672L368.098 146.455Z" fill="#126704"/>
<path d="M216.113 168.697L238.918 134.835L272.787 184.656L260.197 193.049L216.113 185.282L193.049 193.049L178.105 185.282L104.918 184.656L90.3411 168.697L151.082 79.7377L178.105 131.38L184.656 117.508L216.113 168.697Z" fill="#126704"/>
<path d="M126 369.389L134.295 377.705L154.5 366.57L139.602 348.684L126 369.389Z" fill="#126704"/>
<path d="M184.656 344.131L176.262 327.344L166 363.008L180.459 365.115L184.656 355.947L205.639 352.525L209.836 339.934L193.049 310.557L184.656 344.131Z" fill="#126704"/>
<path d="M100.5 366.515L75.541 335.738L67.1475 352.525L46.1639 302.164L37.7705 318.951L16.7869 268.59L8.05457 285.964L12.5902 327.344L37.7705 369.311L41.9672 377.705L67.1475 368.156L75.541 377.705L100.5 366.515Z" fill="#126704"/>
<path d="M361 277.314L343.492 258.063L329.877 277.866L306.361 247.607L297.967 260.197L285.377 235.016L252.118 311.898L272.787 319.162L297.967 302.059L310.557 304.813L329.877 295.078L353 294L361 277.314Z" fill="#126704"/>
<path d="M390 277.453L394.492 285.377L419.629 280.783L403.996 259.898L390 277.453Z" fill="#126704"/>
<path d="M436 284L449.049 302.164L465.836 306.361L478.451 302.036L468.5 274.5L465.964 280.113L453.5 258.063L436 284Z" fill="#126704"/>
<path d="M214.033 339.934C225.823 340.748 226.623 356.721 239.213 356.721C260.554 356.721 289.574 365.115 289.574 386.098C289.574 412.641 269.77 404.404 239.213 411.279C211.55 417.503 278.408 419.143 256 433.252C237.327 445.009 100.721 461.639 121.705 477.514C133.431 487.404 103.89 489.949 75.541 482.623C53.1599 476.839 31.5223 461.639 31.5223 461.639C68.2708 533.76 130.991 605.294 185.948 667.974C212.332 698.066 236.927 726.118 256 751.213C275.073 726.118 299.668 698.066 326.052 667.974C381.009 605.294 443.729 533.76 480.478 461.639C480.478 461.639 404.44 488.764 335.738 495.213C264.854 501.867 201.238 487.698 201.238 477.514C201.238 457.457 293.77 445.009 312.443 433.252C334.852 419.143 251.724 422.186 279.387 415.962C309.944 409.087 318.951 399.398 318.951 386.098C318.951 365.115 289.574 344.131 270.058 338.336C261.097 335.675 279.899 321.235 272.787 319.162L252.118 311.898C238.143 319.747 223.919 328.666 208.93 338.349L209.836 339.934C209.836 339.934 212.398 339.822 214.033 339.934Z" fill="url(#paint2_linear_20_144)"/>
<path fill-rule="evenodd" clip-rule="evenodd" d="M205.639 352.525L209.836 339.934L218.23 335.738L226.623 352.525L218.23 356.721L205.639 352.525ZM218.23 339.934L209.836 344.131H218.23L222.426 348.328L218.23 339.934Z" fill="#404040"/>
<path d="M209.836 344.131L218.23 339.934L222.426 348.328L218.23 344.131H209.836Z" fill="#262525"/>
<path fill-rule="evenodd" clip-rule="evenodd" d="M360.918 169.548L363.436 161.993L368.472 159.475L373.508 169.548L368.472 172.066L360.918 169.548ZM368.472 161.993L363.436 164.511H368.472L370.99 167.03L368.472 161.993Z" fill="#404040"/>
<path d="M363.436 164.511L368.472 161.993L370.99 167.03L368.472 164.511H363.436Z" fill="#262525"/>
<path d="M281.18 314.754L289.574 310.557L293.771 318.951L289.574 323.148L285.377 314.754H281.18Z" fill="#262525"/>
<path fill-rule="evenodd" clip-rule="evenodd" d="M276.984 314.754L272.787 327.344L293.771 331.541L297.967 323.148L289.574 306.361L276.984 314.754ZM281.18 314.754L289.574 310.557L293.771 318.951L289.574 323.148L285.377 314.754H281.18ZM281.18 318.951L276.984 323.148L281.18 327.344V318.951Z" fill="#404040"/>
<path d="M276.984 323.148L281.18 318.951V327.344L276.984 323.148Z" fill="#262525"/>
<path d="M113.311 176.262L121.705 172.066L125.902 180.459L121.705 176.262H113.311Z" fill="#262525"/>
<path fill-rule="evenodd" clip-rule="evenodd" d="M113.311 172.066L104.918 184.656L121.705 188.852L138.492 184.656L134.295 176.262H130.098L121.705 167.869L113.311 172.066ZM113.311 176.262L121.705 172.066L125.902 180.459L121.705 176.262H113.311ZM134.295 180.459H130.098L134.295 184.656V180.459Z" fill="#404040"/>
<path d="M130.098 180.459H134.295V184.656L130.098 180.459Z" fill="#262525"/>
<path d="M233.393 420.393L241.787 416.197L245.984 424.59L241.787 420.393H233.393Z" fill="#262525"/>
<path fill-rule="evenodd" clip-rule="evenodd" d="M233.393 416.197L225 428.787L241.787 432.984L258.574 428.787L254.377 420.393H250.18L241.787 412L233.393 416.197ZM233.393 420.393L241.787 416.197L245.984 424.59L241.787 420.393H233.393ZM254.377 424.59H250.18L254.377 428.787V424.59Z" fill="#404040"/>
<path d="M250.18 424.59H254.377V428.787L250.18 424.59Z" fill="#262525"/>
<path d="M215.432 181.858L221.027 179.06L231.539 187.454L226.623 188.852L218.23 181.858H215.432Z" fill="#262525"/>
<path fill-rule="evenodd" clip-rule="evenodd" d="M212.634 181.858L209.836 187.454L223.825 193.049L235.016 188.852L221.027 176.262L212.634 181.858ZM215.432 181.858L221.027 179.06L231.539 187.454L226.623 188.852L218.23 181.858H215.432ZM214.033 184.656L212.634 186.055L218.23 188.852L214.033 184.656Z" fill="#404040"/>
<path d="M212.634 186.055L214.033 184.656L218.23 188.852L212.634 186.055Z" fill="#262525"/>
<path fill-rule="evenodd" clip-rule="evenodd" d="M278 417.072L280.518 409.518L285.554 407L290.59 417.072L285.554 419.59L278 417.072ZM285.554 409.518L280.518 412.036H285.554L288.072 414.554L285.554 409.518Z" fill="#404040"/>
<path d="M280.518 412.036L285.554 409.518L288.072 414.554L285.554 412.036H280.518Z" fill="#262525"/>
<path d="M494.27 750.865H463.191C462.298 750.865 461.851 750.418 461.851 749.525L462.119 561.037C462.119 560.323 462.476 559.966 463.191 559.966H494.002C494.717 559.966 495.074 560.323 495.074 561.037L495.342 749.525C495.342 750.418 494.985 750.865 494.27 750.865Z" fill="#0079BC"/>
<path d="M566.075 753.544C556.34 753.544 547.365 751.043 539.148 746.042C531.021 741.04 524.502 734.387 519.59 726.081C514.767 717.686 512.356 708.487 512.356 698.485V685.892C512.356 684.909 512.802 684.418 513.695 684.418H544.507C545.221 684.418 545.579 684.909 545.579 685.892V698.485C545.579 704.468 547.588 709.648 551.607 714.024C555.626 718.311 560.449 720.455 566.075 720.455C571.791 720.455 576.658 718.267 580.677 713.89C584.696 709.425 586.706 704.29 586.706 698.485C586.706 691.786 582.329 685.937 573.577 680.935C572.148 680.042 570.273 678.97 567.951 677.72C565.718 676.38 563.039 674.862 559.913 673.165C556.787 671.468 553.75 669.816 550.803 668.209C547.856 666.512 544.998 664.904 542.23 663.386C532.227 657.491 524.77 650.123 519.858 641.282C515.035 632.351 512.623 622.348 512.623 611.274C512.623 601.093 515.124 591.894 520.125 583.677C525.127 575.55 531.646 569.12 539.684 564.386C547.811 559.564 556.608 557.152 566.075 557.152C575.81 557.152 584.741 559.564 592.868 564.386C600.995 569.298 607.47 575.818 612.293 583.945C617.205 592.072 619.661 601.182 619.661 611.274V633.78C619.661 634.494 619.304 634.852 618.589 634.852H587.777C587.063 634.852 586.706 634.494 586.706 633.78L586.438 611.274C586.438 604.844 584.428 599.619 580.409 595.6C576.39 591.581 571.612 589.572 566.075 589.572C560.449 589.572 555.626 591.715 551.607 596.002C547.588 600.289 545.579 605.379 545.579 611.274C545.579 617.258 546.829 622.259 549.33 626.278C551.92 630.297 556.608 634.137 563.396 637.799C564.11 638.156 565.763 639.049 568.353 640.478C570.943 641.907 573.8 643.515 576.926 645.301C580.141 646.998 583.044 648.561 585.634 649.99C588.224 651.329 589.787 652.133 590.323 652.401C599.432 657.491 606.622 663.743 611.891 671.156C617.249 678.569 619.929 687.678 619.929 698.485C619.929 708.934 617.517 718.311 612.695 726.617C607.783 734.923 601.263 741.487 593.136 746.31C585.009 751.132 575.989 753.544 566.075 753.544Z" fill="#0079BC"/>
<path d="M702.987 750.865H669.763C668.96 750.865 668.513 750.418 668.424 749.525L630.512 561.037C630.333 560.323 630.691 559.966 631.584 559.966H662.663C663.378 559.966 663.824 560.323 664.003 561.037L686.509 686.696L697.494 623.866L708.479 561.037C708.658 560.323 709.104 559.966 709.819 559.966H740.497C741.479 559.966 741.836 560.323 741.568 561.037L704.326 749.525C704.237 750.418 703.79 750.865 702.987 750.865Z" fill="#126704"/>
<path d="M791.805 753.544C782.07 753.544 773.094 751.043 764.878 746.042C756.751 741.04 750.187 734.387 745.185 726.081C740.273 717.686 737.817 708.487 737.817 698.485L738.085 611.542C738.085 601.361 740.541 592.206 745.453 584.079C750.276 575.863 756.795 569.298 765.012 564.386C773.228 559.385 782.159 556.884 791.805 556.884C801.807 556.884 810.783 559.34 818.732 564.252C826.769 569.164 833.2 575.773 838.022 584.079C842.934 592.296 845.39 601.45 845.39 611.542L845.658 698.485C845.658 708.487 843.247 717.641 838.424 725.947C833.512 734.342 826.993 741.04 818.866 746.042C810.738 751.043 801.718 753.544 791.805 753.544ZM791.805 720.455C797.342 720.455 802.165 718.222 806.273 713.756C810.381 709.202 812.435 704.111 812.435 698.485L812.167 611.542C812.167 605.469 810.247 600.333 806.407 596.136C802.567 591.938 797.699 589.84 791.805 589.84C786.178 589.84 781.356 591.894 777.337 596.002C773.318 600.11 771.308 605.29 771.308 611.542V698.485C771.308 704.468 773.318 709.648 777.337 714.024C781.356 718.311 786.178 720.455 791.805 720.455Z" fill="#126704"/>
<path d="M898.574 750.865H867.495C866.78 750.865 866.423 750.418 866.423 749.525L866.959 561.037C866.959 560.323 867.316 559.966 868.03 559.966H923.492C933.405 559.966 942.514 562.377 950.82 567.2C959.126 572.022 965.735 578.497 970.647 586.624C975.648 594.752 978.149 603.95 978.149 614.221C978.149 620.919 977.122 626.992 975.068 632.44C973.014 637.888 970.602 642.488 967.834 646.238C965.154 649.989 962.698 652.758 960.466 654.544C970.379 665.529 975.336 678.435 975.336 693.26L975.604 749.525C975.604 750.418 975.157 750.865 974.264 750.865H943.184C942.47 750.865 942.113 750.597 942.113 750.061V693.26C942.113 686.651 939.79 680.935 935.146 676.113C930.502 671.29 924.786 668.878 917.999 668.878H899.914L899.646 749.525C899.646 750.418 899.289 750.865 898.574 750.865ZM923.492 592.787H899.914V635.923H923.492C929.118 635.923 934.119 633.824 938.496 629.627C942.961 625.429 945.194 620.294 945.194 614.221C945.194 608.416 943.05 603.415 938.763 599.217C934.477 594.93 929.386 592.787 923.492 592.787Z" fill="#126704"/>
<path d="M569.67 485.326L595.322 419.754H599.301L621.661 485.737L624.953 496.849C625.227 495.111 626.371 491.453 628.383 485.874L651.154 417.971H657.739L626.736 507.549H623.033C607.76 463.743 599.849 440.971 599.301 439.233C598.477 436.764 597.654 434.341 596.831 431.963C596.374 433.518 595.139 436.764 593.127 441.703L567.201 507.549H563.497L532.22 417.971H539.216L561.851 484.777C563.131 488.435 564.32 492.505 565.417 496.986C565.875 495.157 567.292 491.27 569.67 485.326Z" fill="white"/>
<path d="M744.087 507V462.005H682.219V507H675.909V417.971H682.219V456.381H744.087V417.971H750.397V507H744.087Z" fill="white"/>
<path d="M783.348 507V417.971H824.913V423.458H789.658V455.832H821.484V461.182H789.658V501.238H826.285V507H783.348Z" fill="white"/>
<path d="M851.536 507V418.382C859.401 417.742 866.077 417.422 871.564 417.422C879.978 417.422 886.928 419.617 892.415 424.006C897.902 428.305 900.646 434.478 900.646 442.526C900.646 447.921 899.091 452.906 895.982 457.478C892.872 462.051 889.352 465.755 885.419 468.59C896.302 483.039 903.024 491.682 905.584 494.517C910.797 499.912 916.467 502.976 922.595 503.708L922.457 507.96C917.336 507.869 913.175 507.137 909.974 505.765C906.773 504.302 903.572 501.879 900.372 498.495C897.262 495.111 890.357 486.012 879.658 471.196C872.25 471.196 864.979 470.968 857.846 470.51V507H851.536ZM876.228 465.983C879.795 465.983 883.636 463.606 887.751 458.85C891.866 454.094 893.924 448.562 893.924 442.251C893.924 435.941 891.775 431.14 887.477 427.848C883.178 424.555 877.6 422.909 870.741 422.909C867.083 422.909 862.784 423.092 857.846 423.458V465.297C864.431 465.755 870.558 465.983 876.228 465.983Z" fill="white"/>
<path d="M934.995 507V417.971H976.561V423.458H941.306V455.832H973.131V461.182H941.306V501.238H977.932V507H934.995Z" fill="white"/>
<defs>
<linearGradient id="paint0_linear_20_144" x1="256" y1="132" x2="256" y2="751.213" gradientUnits="userSpaceOnUse">
<stop stop-color="#082703"/>
<stop offset="0.149" stop-color="#146008"/>
<stop offset="0.389" stop-color="#146008"/>
<stop offset="0.784" stop-color="#082703"/>
</linearGradient>
<linearGradient id="paint1_linear_20_144" x1="256" y1="0" x2="256" y2="751.213" gradientUnits="userSpaceOnUse">
<stop offset="0.045" stop-color="#082703"/>
<stop offset="0.245" stop-color="#146008"/>
<stop offset="0.439" stop-color="#146008"/>
<stop offset="0.682076" stop-color="#082703"/>
</linearGradient>
<linearGradient id="paint2_linear_20_144" x1="256" y1="0" x2="256" y2="634.571" gradientUnits="userSpaceOnUse">
<stop offset="0.197492" stop-color="#2AA0D0"/>
<stop offset="0.611229" stop-color="#138AAF"/>
<stop offset="1" stop-color="#1F3845"/>
</linearGradient>
</defs>
</svg>
