<svg width="512" height="754" viewBox="0 0 512 754" fill="none" xmlns="http://www.w3.org/2000/svg">
<path d="M33.5738 221.501C55.071 249.193 88.6796 267.013 126.45 267.013C151.417 267.013 174.564 259.227 193.598 245.951C240.845 201.808 304.296 179.807 374.057 179.807C376.645 179.807 379.237 179.799 381.83 179.791L381.842 179.791C406.825 179.714 431.94 179.636 454.538 186.703C454.063 186.12 453.585 185.539 453.105 184.96C406.148 128.368 335.283 92.3279 256 92.3279C160.76 92.3279 77.668 144.336 33.5738 221.501Z" fill="url(#paint0_linear_8_356)"/>
<path d="M126.45 369.39C88.6796 369.39 55.071 351.57 33.5738 323.878C12.0765 296.186 7.79746 285.377 7.79746 285.377C2.70534 305.516 0 326.606 0 348.328C0 455.895 102.026 572.258 185.948 667.974C212.332 698.066 236.927 726.118 256 751.213C275.072 726.119 299.666 698.068 326.049 667.977L326.051 667.975L326.052 667.974C409.974 572.258 512 455.895 512 348.328C512 348.328 495.213 302.164 454.538 289.079C413.863 275.995 373.508 276.984 373.508 276.984C326.692 276.984 290.194 290.515 252.118 311.898C238.143 319.747 223.919 328.666 208.93 338.349C203.905 341.596 198.826 344.917 193.598 348.328C167.869 365.115 151.417 369.39 126.45 369.39Z" fill="url(#paint1_linear_8_356)"/>
<path d="M200.915 75.3541L187.174 58.4644L163.238 88.9958L182.726 100.689L200.915 75.3541Z" fill="#6D6D6D"/>
<path fill-rule="evenodd" clip-rule="evenodd" d="M381.902 163.672L326.289 93.5431L350.324 58.4644L368.513 81.596L354.221 100.689L381.505 116.929L410.087 134.468L433.65 164L419.672 163.672H381.902Z" fill="white"/>
<path d="M410.087 134.468L368.513 81.596L354.221 100.689L381.505 116.929L410.087 134.468Z" fill="#6D6D6D"/>
<path d="M390.295 167.869L381.902 163.672L369.17 163.701L390.295 167.869Z" fill="#6D6D6D"/>
<path fill-rule="evenodd" clip-rule="evenodd" d="M326.289 93.5431L254.182 0L250.509 5.19684L281.466 51.9684L255.482 88.9958L369.311 163.672L369.17 163.701L381.902 163.672L326.289 93.5431Z" fill="#6D6D6D"/>
<path d="M172.1 37.0275L137.021 85.7478L77.9557 164.381L104.918 184.656L216.113 168.697L272.787 184.656L276.984 167.869L321.607 163.807L369.17 163.701L369.311 163.672L255.482 88.9958L281.466 51.9684L250.509 5.19684L200.915 75.3541L182.726 100.689L163.238 88.9958L187.174 58.4644L172.1 37.0275Z" fill="white"/>
<path d="M321.607 163.807L343.742 129.119L369.311 163.672L331.541 172.066L321.607 163.807Z" fill="#126704"/>
<path d="M368.098 146.455L386.098 122.131L419.672 163.672L390.295 167.869L381.902 163.672L368.098 146.455Z" fill="#126704"/>
<path d="M216.113 168.697L238.918 134.835L272.787 184.656L260.197 193.049L216.113 185.282L193.049 193.049L178.105 185.282L104.918 184.656L90.3411 168.697L151.082 79.7377L178.105 131.38L184.656 117.508L216.113 168.697Z" fill="#126704"/>
<path d="M126 369.389L134.295 377.705L154.5 366.57L139.602 348.684L126 369.389Z" fill="#126704"/>
<path d="M184.656 344.131L176.262 327.344L166 363.008L180.459 365.115L184.656 355.947L205.639 352.525L209.836 339.934L193.049 310.557L184.656 344.131Z" fill="#126704"/>
<path d="M100.5 366.515L75.541 335.738L67.1475 352.525L46.1639 302.164L37.7705 318.951L16.7869 268.59L8.05457 285.964L12.5902 327.344L37.7705 369.311L41.9672 377.705L67.1475 368.156L75.541 377.705L100.5 366.515Z" fill="#126704"/>
<path d="M361 277.314L343.492 258.063L329.877 277.866L306.361 247.607L297.967 260.197L285.377 235.016L252.118 311.898L272.787 319.162L297.967 302.059L310.557 304.813L329.877 295.078L353 294L361 277.314Z" fill="#126704"/>
<path d="M390 277.453L394.492 285.377L419.629 280.783L403.996 259.898L390 277.453Z" fill="#126704"/>
<path d="M436 284L449.049 302.164L465.836 306.361L478.451 302.036L468.5 274.5L465.964 280.113L453.5 258.063L436 284Z" fill="#126704"/>
<path d="M214.033 339.934C225.823 340.748 226.623 356.721 239.213 356.721C260.554 356.721 289.574 365.115 289.574 386.098C289.574 412.641 269.77 404.404 239.213 411.279C211.55 417.503 278.408 419.143 256 433.252C237.327 445.009 100.721 461.639 121.705 477.514C133.431 487.404 103.89 489.949 75.541 482.623C53.1599 476.839 31.5223 461.639 31.5223 461.639C68.2708 533.76 130.991 605.294 185.948 667.974C212.332 698.066 236.927 726.118 256 751.213C275.073 726.118 299.668 698.066 326.052 667.974C381.009 605.294 443.729 533.76 480.478 461.639C480.478 461.639 404.44 488.764 335.738 495.213C264.854 501.867 201.238 487.698 201.238 477.514C201.238 457.457 293.77 445.009 312.443 433.252C334.852 419.143 251.724 422.186 279.387 415.962C309.944 409.087 318.951 399.398 318.951 386.098C318.951 365.115 289.574 344.131 270.058 338.336C261.097 335.675 279.899 321.235 272.787 319.162L252.118 311.898C238.143 319.747 223.919 328.666 208.93 338.349L209.836 339.934C209.836 339.934 212.398 339.822 214.033 339.934Z" fill="url(#paint2_linear_8_356)"/>
<path fill-rule="evenodd" clip-rule="evenodd" d="M205.639 352.525L209.836 339.934L218.23 335.738L226.623 352.525L218.23 356.721L205.639 352.525ZM218.23 339.934L209.836 344.131H218.23L222.426 348.328L218.23 339.934Z" fill="#404040"/>
<path d="M209.836 344.131L218.23 339.934L222.426 348.328L218.23 344.131H209.836Z" fill="#262525"/>
<path fill-rule="evenodd" clip-rule="evenodd" d="M360.918 169.548L363.436 161.993L368.472 159.475L373.508 169.548L368.472 172.066L360.918 169.548ZM368.472 161.993L363.436 164.511H368.472L370.99 167.03L368.472 161.993Z" fill="#404040"/>
<path d="M363.436 164.511L368.472 161.993L370.99 167.03L368.472 164.511H363.436Z" fill="#262525"/>
<path d="M281.18 314.754L289.574 310.557L293.771 318.951L289.574 323.148L285.377 314.754H281.18Z" fill="#262525"/>
<path fill-rule="evenodd" clip-rule="evenodd" d="M276.984 314.754L272.787 327.344L293.771 331.541L297.967 323.148L289.574 306.361L276.984 314.754ZM281.18 314.754L289.574 310.557L293.771 318.951L289.574 323.148L285.377 314.754H281.18ZM281.18 318.951L276.984 323.148L281.18 327.344V318.951Z" fill="#404040"/>
<path d="M276.984 323.148L281.18 318.951V327.344L276.984 323.148Z" fill="#262525"/>
<path d="M113.311 176.262L121.705 172.066L125.902 180.459L121.705 176.262H113.311Z" fill="#262525"/>
<path fill-rule="evenodd" clip-rule="evenodd" d="M113.311 172.066L104.918 184.656L121.705 188.852L138.492 184.656L134.295 176.262H130.098L121.705 167.869L113.311 172.066ZM113.311 176.262L121.705 172.066L125.902 180.459L121.705 176.262H113.311ZM134.295 180.459H130.098L134.295 184.656V180.459Z" fill="#404040"/>
<path d="M130.098 180.459H134.295V184.656L130.098 180.459Z" fill="#262525"/>
<path d="M233.393 420.393L241.787 416.197L245.984 424.59L241.787 420.393H233.393Z" fill="#262525"/>
<path fill-rule="evenodd" clip-rule="evenodd" d="M233.393 416.197L225 428.787L241.787 432.984L258.574 428.787L254.377 420.393H250.18L241.787 412L233.393 416.197ZM233.393 420.393L241.787 416.197L245.984 424.59L241.787 420.393H233.393ZM254.377 424.59H250.18L254.377 428.787V424.59Z" fill="#404040"/>
<path d="M250.18 424.59H254.377V428.787L250.18 424.59Z" fill="#262525"/>
<path d="M215.432 181.858L221.027 179.06L231.539 187.454L226.623 188.852L218.23 181.858H215.432Z" fill="#262525"/>
<path fill-rule="evenodd" clip-rule="evenodd" d="M212.634 181.858L209.836 187.454L223.825 193.049L235.016 188.852L221.027 176.262L212.634 181.858ZM215.432 181.858L221.027 179.06L231.539 187.454L226.623 188.852L218.23 181.858H215.432ZM214.033 184.656L212.634 186.055L218.23 188.852L214.033 184.656Z" fill="#404040"/>
<path d="M212.634 186.055L214.033 184.656L218.23 188.852L212.634 186.055Z" fill="#262525"/>
<path fill-rule="evenodd" clip-rule="evenodd" d="M278 417.072L280.518 409.518L285.554 407L290.59 417.072L285.554 419.59L278 417.072ZM285.554 409.518L280.518 412.036H285.554L288.072 414.554L285.554 409.518Z" fill="#404040"/>
<path d="M280.518 412.036L285.554 409.518L288.072 414.554L285.554 412.036H280.518Z" fill="#262525"/>
<defs>
<linearGradient id="paint0_linear_8_356" x1="256" y1="132" x2="256" y2="751.213" gradientUnits="userSpaceOnUse">
<stop stop-color="#082703"/>
<stop offset="0.149" stop-color="#146008"/>
<stop offset="0.389" stop-color="#146008"/>
<stop offset="0.784" stop-color="#082703"/>
</linearGradient>
<linearGradient id="paint1_linear_8_356" x1="256" y1="0" x2="256" y2="751.213" gradientUnits="userSpaceOnUse">
<stop offset="0.045" stop-color="#082703"/>
<stop offset="0.245" stop-color="#146008"/>
<stop offset="0.439" stop-color="#146008"/>
<stop offset="0.682076" stop-color="#082703"/>
</linearGradient>
<linearGradient id="paint2_linear_8_356" x1="256" y1="12.5" x2="256" y2="713" gradientUnits="userSpaceOnUse">
<stop offset="0.357765" stop-color="#89BFFF"/>
<stop offset="0.656401" stop-color="#89BFFF"/>
<stop offset="0.934442" stop-color="#314E71"/>
</linearGradient>
</defs>
</svg>
