<svg width="224" height="173" viewBox="0 0 224 173" fill="none" xmlns="http://www.w3.org/2000/svg">
<path d="M7.68853 50.7246C12.6115 57.0661 20.308 61.1471 28.9576 61.1471C34.675 61.1471 39.9759 59.3641 44.3347 56.3238C55.1545 46.2149 69.685 41.1766 85.6605 41.1766C86.2531 41.1766 86.8467 41.1748 87.4407 41.1729L87.4434 41.1729C93.1646 41.1552 98.916 41.1374 104.091 42.7556C103.982 42.6221 103.873 42.4891 103.763 42.3566C93.0094 29.3969 76.7811 21.1434 58.625 21.1434C36.8148 21.1434 17.7863 33.0535 7.68853 50.7246Z" fill="url(#paint0_linear_30_481)"/>
<path d="M28.9576 84.5918C20.308 84.5918 12.6115 80.5109 7.68853 74.1693C2.76558 67.8278 1.78565 65.3525 1.78565 65.3525C0.619534 69.9645 0 74.7941 0 79.7685C0 104.402 23.3643 131.049 42.5828 152.969C48.625 159.86 54.2573 166.284 58.625 172.031C62.9926 166.284 68.6247 159.86 74.6665 152.969L74.667 152.969L74.6672 152.969C93.8857 131.049 117.25 104.402 117.25 79.7685C117.25 79.7685 113.406 69.1968 104.091 66.2004C94.7763 63.204 85.5349 63.4304 85.5349 63.4304C74.8137 63.4304 66.4556 66.529 57.7361 71.4259C54.5357 73.2232 51.2783 75.2659 47.8459 77.4834C46.695 78.2269 45.5319 78.9874 44.3347 79.7685C38.4426 83.6127 34.675 84.5918 28.9576 84.5918Z" fill="url(#paint1_linear_30_481)"/>
<path d="M46.0103 17.2564L42.8636 13.3886L37.3821 20.3804L41.8449 23.0581L46.0103 17.2564Z" fill="#6D6D6D"/>
<path fill-rule="evenodd" clip-rule="evenodd" d="M87.457 37.4816L74.7214 21.4217L80.2256 13.3886L84.3909 18.6858L81.1181 23.0581L87.3661 26.7772L93.9117 30.7938L99.3075 37.5567L96.1066 37.4816H87.457Z" fill="white"/>
<path d="M93.9117 30.7938L84.3909 18.6858L81.1181 23.0581L87.3661 26.7772L93.9117 30.7938Z" fill="#6D6D6D"/>
<path d="M89.3791 38.4426L87.457 37.4816L84.5413 37.4881L89.3791 38.4426Z" fill="#6D6D6D"/>
<path fill-rule="evenodd" clip-rule="evenodd" d="M74.7214 21.4217L58.2088 0L57.3675 1.1901L64.4568 11.901L58.5063 20.3804L84.5738 37.4816L84.5413 37.4881L87.457 37.4816L74.7214 21.4217Z" fill="#6D6D6D"/>
<path d="M39.4116 8.47944L31.3784 19.6366L17.8522 37.644L24.0266 42.2869L49.4908 38.6322L62.4693 42.2869L63.4304 38.4426L73.6493 37.5124L84.5413 37.4881L84.5738 37.4816L58.5063 20.3804L64.4568 11.901L57.3675 1.1901L46.0103 17.2564L41.8449 23.0581L37.3821 20.3804L42.8636 13.3886L39.4116 8.47944Z" fill="white"/>
<path d="M73.6493 37.5124L78.7184 29.5688L84.5738 37.4816L75.9242 39.4037L73.6493 37.5124Z" fill="#126704"/>
<path d="M84.296 33.5387L88.418 27.9685L96.1066 37.4816L89.3791 38.4426L87.457 37.4816L84.296 33.5387Z" fill="#126704"/>
<path d="M49.4908 38.6322L54.7132 30.8777L62.4693 42.2869L59.5861 44.209L49.4908 42.4303L44.209 44.209L40.7868 42.4303L24.0266 42.2869L20.6885 38.6322L34.5984 18.2603L40.7868 30.0865L42.2869 26.9098L49.4908 38.6322Z" fill="#126704"/>
<path d="M28.8545 84.5916L30.7541 86.4959L35.3811 83.946L31.9693 79.8499L28.8545 84.5916Z" fill="#126704"/>
<path d="M42.2869 78.8074L40.3648 74.9631L38.0147 83.1303L41.3258 83.6127L42.2869 81.5134L47.0922 80.7295L48.0533 77.8463L44.209 71.1189L42.2869 78.8074Z" fill="#126704"/>
<path d="M23.0149 83.9334L17.2992 76.8853L15.3771 80.7295L10.5717 69.1967L8.64959 73.041L3.84426 61.5082L1.84453 65.4869L2.8832 74.9631L8.64959 84.5738L9.61066 86.4959L15.3771 84.3092L17.2992 86.4959L23.0149 83.9334Z" fill="#126704"/>
<path d="M82.6704 63.506L78.661 59.0974L75.5433 63.6323L70.1578 56.7029L68.2357 59.5861L65.3525 53.8197L57.7361 71.4259L62.4693 73.0894L68.2357 69.1727L71.1189 69.8035L75.5433 67.574L80.8384 67.3272L82.6704 63.506Z" fill="#126704"/>
<path d="M89.3116 63.5379L90.3402 65.3525L96.0967 64.3005L92.5168 59.5177L89.3116 63.5379Z" fill="#126704"/>
<path d="M99.8457 65.0371L102.834 69.1967L106.678 70.1578L109.567 69.1675L107.288 62.8616L106.708 64.1471L103.853 59.0974L99.8457 65.0371Z" fill="#126704"/>
<path d="M49.0144 77.8463C51.7144 78.0325 51.8976 81.6906 54.7808 81.6906C59.6679 81.6906 66.3136 83.6127 66.3136 88.4181C66.3136 94.4964 61.7783 92.61 54.7808 94.1845C48.4457 95.6099 63.7566 95.9854 58.625 99.2164C54.3488 101.909 23.0656 105.717 27.8709 109.353C30.5562 111.618 23.7911 112.2 17.2992 110.523C12.1738 109.198 7.21873 105.717 7.21873 105.717C15.6343 122.233 29.9975 138.615 42.5828 152.969C48.625 159.86 54.2573 166.284 58.625 172.031C62.9927 166.284 68.6251 159.86 74.6672 152.969C87.2526 138.615 101.616 122.233 110.031 105.717C110.031 105.717 92.6183 111.929 76.8853 113.406C60.6526 114.929 46.0842 111.685 46.0842 109.353C46.0842 104.76 67.2746 101.909 71.5508 99.2164C76.6823 95.9854 57.6458 96.6824 63.9808 95.257C70.9784 93.6825 73.041 91.4637 73.041 88.4181C73.041 83.6127 66.3136 78.8074 61.8444 77.4803C59.7922 76.8709 64.098 73.5641 62.4693 73.0894L57.7361 71.4259C54.5357 73.2232 51.2783 75.2659 47.8459 77.4834L48.0533 77.8463C48.0533 77.8463 48.6399 77.8205 49.0144 77.8463Z" fill="url(#paint2_linear_30_481)"/>
<path fill-rule="evenodd" clip-rule="evenodd" d="M47.0922 80.7295L48.0533 77.8463L49.9754 76.8853L51.8976 80.7295L49.9754 81.6906L47.0922 80.7295ZM49.9754 77.8463L48.0533 78.8074H49.9754L50.9365 79.7685L49.9754 77.8463Z" fill="#404040"/>
<path d="M48.0533 78.8074L49.9754 77.8463L50.9365 79.7685L49.9754 78.8074H48.0533Z" fill="#262525"/>
<path fill-rule="evenodd" clip-rule="evenodd" d="M82.6517 38.8271L83.2283 37.0971L84.3816 36.5205L85.5349 38.8271L84.3816 39.4037L82.6517 38.8271ZM84.3816 37.0971L83.2283 37.6738H84.3816L84.9582 38.2504L84.3816 37.0971Z" fill="#404040"/>
<path d="M83.2283 37.6738L84.3816 37.0971L84.9582 38.2504L84.3816 37.6738H83.2283Z" fill="#262525"/>
<path d="M64.3914 72.0799L66.3136 71.1189L67.2746 73.041L66.3136 74.0021L65.3525 72.0799H64.3914Z" fill="#262525"/>
<path fill-rule="evenodd" clip-rule="evenodd" d="M63.4304 72.0799L62.4693 74.9631L67.2746 75.9242L68.2357 74.0021L66.3136 70.1578L63.4304 72.0799ZM64.3914 72.0799L66.3136 71.1189L67.2746 73.041L66.3136 74.0021L65.3525 72.0799H64.3914ZM64.3914 73.041L63.4304 74.0021L64.3914 74.9631V73.041Z" fill="#404040"/>
<path d="M63.4304 74.0021L64.3914 73.041V74.9631L63.4304 74.0021Z" fill="#262525"/>
<path d="M25.9488 40.3648L27.8709 39.4037L28.832 41.3258L27.8709 40.3648H25.9488Z" fill="#262525"/>
<path fill-rule="evenodd" clip-rule="evenodd" d="M25.9488 39.4037L24.0266 42.2869L27.8709 43.248L31.7152 42.2869L30.7541 40.3648H29.793L27.8709 38.4426L25.9488 39.4037ZM25.9488 40.3648L27.8709 39.4037L28.832 41.3258L27.8709 40.3648H25.9488ZM30.7541 41.3258H29.793L30.7541 42.2869V41.3258Z" fill="#404040"/>
<path d="M29.793 41.3258H30.7541V42.2869L29.793 41.3258Z" fill="#262525"/>
<path d="M53.448 96.2718L55.3702 95.3107L56.3312 97.2328L55.3702 96.2718H53.448Z" fill="#262525"/>
<path fill-rule="evenodd" clip-rule="evenodd" d="M53.448 95.3107L51.5259 98.1939L55.3702 99.155L59.2144 98.1939L58.2534 96.2718H57.2923L55.3702 94.3496L53.448 95.3107ZM53.448 96.2718L55.3702 95.3107L56.3312 97.2328L55.3702 96.2718H53.448ZM58.2534 97.2328H57.2923L58.2534 98.1939V97.2328Z" fill="#404040"/>
<path d="M57.2923 97.2328H58.2534V98.1939L57.2923 97.2328Z" fill="#262525"/>
<path d="M49.3347 41.6462L50.6161 41.0055L53.0233 42.9276L51.8976 43.248L49.9754 41.6462H49.3347Z" fill="#262525"/>
<path fill-rule="evenodd" clip-rule="evenodd" d="M48.694 41.6462L48.0533 42.9276L51.2569 44.209L53.8197 43.248L50.6161 40.3648L48.694 41.6462ZM49.3347 41.6462L50.6161 41.0055L53.0233 42.9276L51.8976 43.248L49.9754 41.6462H49.3347ZM49.0144 42.2869L48.694 42.6073L49.9754 43.248L49.0144 42.2869Z" fill="#404040"/>
<path d="M48.694 42.6073L49.0144 42.2869L49.9754 43.248L48.694 42.6073Z" fill="#262525"/>
<path fill-rule="evenodd" clip-rule="evenodd" d="M63.6631 95.5112L64.2398 93.7813L65.393 93.2046L66.5463 95.5112L65.393 96.0878L63.6631 95.5112ZM65.393 93.7813L64.2398 94.3579H65.393L65.9697 94.9345L65.393 93.7813Z" fill="#404040"/>
<path d="M64.2398 94.3579L65.393 93.7813L65.9697 94.9345L65.393 94.3579H64.2398Z" fill="#262525"/>
<path d="M113.19 171.951H106.072C105.868 171.951 105.766 171.849 105.766 171.644L105.827 128.48C105.827 128.316 105.909 128.234 106.072 128.234H113.128C113.292 128.234 113.374 128.316 113.374 128.48L113.435 171.644C113.435 171.849 113.353 171.951 113.19 171.951Z" fill="#0079BC"/>
<path d="M129.633 172.565C127.404 172.565 125.349 171.992 123.467 170.847C121.606 169.701 120.113 168.178 118.988 166.276C117.884 164.353 117.331 162.246 117.331 159.956V157.072C117.331 156.847 117.434 156.735 117.638 156.735H124.694C124.858 156.735 124.94 156.847 124.94 157.072V159.956C124.94 161.326 125.4 162.512 126.32 163.514C127.24 164.496 128.345 164.987 129.633 164.987C130.942 164.987 132.057 164.486 132.977 163.484C133.898 162.461 134.358 161.285 134.358 159.956C134.358 158.422 133.356 157.082 131.351 155.937C131.024 155.732 130.595 155.487 130.063 155.201C129.552 154.894 128.938 154.546 128.222 154.158C127.506 153.769 126.811 153.391 126.136 153.022C125.461 152.634 124.807 152.266 124.173 151.918C121.882 150.568 120.174 148.881 119.049 146.856C117.945 144.811 117.393 142.52 117.393 139.984C117.393 137.653 117.965 135.546 119.111 133.664C120.256 131.803 121.749 130.331 123.59 129.247C125.451 128.142 127.465 127.59 129.633 127.59C131.863 127.59 133.908 128.142 135.769 129.247C137.63 130.372 139.113 131.865 140.217 133.726C141.342 135.587 141.905 137.673 141.905 139.984V145.138C141.905 145.302 141.823 145.384 141.659 145.384H134.603C134.44 145.384 134.358 145.302 134.358 145.138L134.296 139.984C134.296 138.512 133.836 137.315 132.916 136.395C131.996 135.474 130.901 135.014 129.633 135.014C128.345 135.014 127.24 135.505 126.32 136.487C125.4 137.469 124.94 138.634 124.94 139.984C124.94 141.354 125.226 142.5 125.799 143.42C126.392 144.341 127.465 145.22 129.02 146.058C129.183 146.14 129.562 146.345 130.155 146.672C130.748 146.999 131.402 147.367 132.118 147.776C132.855 148.165 133.519 148.523 134.112 148.85C134.706 149.157 135.063 149.341 135.186 149.402C137.272 150.568 138.919 152 140.125 153.697C141.352 155.395 141.966 157.481 141.966 159.956C141.966 162.349 141.414 164.496 140.309 166.398C139.185 168.3 137.692 169.804 135.83 170.908C133.969 172.012 131.904 172.565 129.633 172.565Z" fill="#0079BC"/>
<path d="M160.987 171.951H153.378C153.194 171.951 153.092 171.849 153.072 171.644L144.39 128.48C144.349 128.316 144.431 128.234 144.635 128.234H151.752C151.916 128.234 152.018 128.316 152.059 128.48L157.213 157.256L159.729 142.868L162.244 128.48C162.285 128.316 162.388 128.234 162.551 128.234H169.577C169.802 128.234 169.883 128.316 169.822 128.48L161.293 171.644C161.273 171.849 161.171 171.951 160.987 171.951Z" fill="#126704"/>
<path d="M181.326 172.565C179.097 172.565 177.042 171.992 175.16 170.847C173.299 169.701 171.796 168.178 170.65 166.276C169.525 164.353 168.963 162.246 168.963 159.956L169.024 140.046C169.024 137.714 169.587 135.618 170.712 133.756C171.816 131.875 173.309 130.372 175.191 129.247C177.072 128.101 179.117 127.529 181.326 127.529C183.617 127.529 185.672 128.091 187.493 129.216C189.333 130.341 190.806 131.854 191.91 133.756C193.035 135.638 193.598 137.734 193.598 140.046L193.659 159.956C193.659 162.246 193.107 164.343 192.002 166.245C190.878 168.167 189.385 169.701 187.523 170.847C185.662 171.992 183.597 172.565 181.326 172.565ZM181.326 164.987C182.594 164.987 183.699 164.476 184.64 163.453C185.58 162.41 186.051 161.244 186.051 159.956L185.989 140.046C185.989 138.655 185.55 137.479 184.67 136.518C183.791 135.556 182.676 135.076 181.326 135.076C180.038 135.076 178.933 135.546 178.013 136.487C177.093 137.428 176.633 138.614 176.633 140.046V159.956C176.633 161.326 177.093 162.512 178.013 163.514C178.933 164.496 180.038 164.987 181.326 164.987Z" fill="#126704"/>
<path d="M205.777 171.951H198.66C198.496 171.951 198.414 171.849 198.414 171.644L198.537 128.48C198.537 128.316 198.619 128.234 198.782 128.234H211.483C213.753 128.234 215.839 128.787 217.742 129.891C219.644 130.995 221.157 132.478 222.282 134.339C223.427 136.201 224 138.307 224 140.659C224 142.193 223.765 143.584 223.294 144.831C222.824 146.079 222.272 147.132 221.638 147.991C221.024 148.85 220.462 149.484 219.95 149.893C222.221 152.409 223.356 155.364 223.356 158.759L223.417 171.644C223.417 171.849 223.315 171.951 223.11 171.951H215.993C215.829 171.951 215.747 171.89 215.747 171.767V158.759C215.747 157.246 215.216 155.937 214.152 154.832C213.089 153.728 211.78 153.176 210.225 153.176H206.084L206.022 171.644C206.022 171.849 205.941 171.951 205.777 171.951ZM211.483 135.751H206.084V145.629H211.483C212.772 145.629 213.917 145.148 214.919 144.187C215.942 143.226 216.453 142.05 216.453 140.659C216.453 139.33 215.962 138.184 214.98 137.223C213.999 136.241 212.833 135.751 211.483 135.751Z" fill="#126704"/>
<path d="M130.457 111.142L136.331 96.1254H137.242L142.363 111.236L143.117 113.78C143.179 113.382 143.441 112.545 143.902 111.267L149.117 95.717H150.625L143.525 116.231H142.677C139.179 106.199 137.368 100.984 137.242 100.586C137.054 100.021 136.865 99.4658 136.677 98.9213C136.572 99.2773 136.289 100.021 135.828 101.152L129.891 116.231H129.043L121.88 95.717H123.483L128.666 111.016C128.959 111.854 129.231 112.786 129.483 113.812C129.587 113.393 129.912 112.503 130.457 111.142Z" fill="black"/>
<path d="M170.399 116.105V105.801H156.231V116.105H154.786V95.717H156.231V104.513H170.399V95.717H171.844V116.105H170.399Z" fill="black"/>
<path d="M179.39 116.105V95.717H188.908V96.9736H180.835V104.387H188.123V105.613H180.835V114.786H189.222V116.105H179.39Z" fill="black"/>
<path d="M195.005 116.105V95.8112C196.806 95.6646 198.335 95.5913 199.591 95.5913C201.518 95.5913 203.11 96.0939 204.367 97.0992C205.623 98.0835 206.251 99.4972 206.251 101.34C206.251 102.576 205.895 103.717 205.183 104.764C204.471 105.812 203.665 106.66 202.764 107.309C205.257 110.618 206.796 112.597 207.382 113.246C208.576 114.482 209.875 115.184 211.278 115.351L211.246 116.325C210.074 116.304 209.121 116.136 208.388 115.822C207.655 115.487 206.922 114.932 206.189 114.157C205.477 113.382 203.895 111.299 201.445 107.906C199.749 107.906 198.084 107.853 196.45 107.749V116.105H195.005ZM200.66 106.712C201.476 106.712 202.356 106.168 203.298 105.079C204.241 103.989 204.712 102.722 204.712 101.277C204.712 99.8323 204.22 98.7328 203.236 97.9788C202.251 97.2249 200.974 96.8479 199.403 96.8479C198.565 96.8479 197.581 96.8898 196.45 96.9736V106.555C197.958 106.66 199.361 106.712 200.66 106.712Z" fill="black"/>
<path d="M214.118 116.105V95.717H223.636V96.9736H215.563V104.387H222.851V105.613H215.563V114.786H223.95V116.105H214.118Z" fill="black"/>
<defs>
<linearGradient id="paint0_linear_30_481" x1="58.625" y1="30.2285" x2="58.625" y2="172.031" gradientUnits="userSpaceOnUse">
<stop stop-color="#082703"/>
<stop offset="0.149" stop-color="#146008"/>
<stop offset="0.389" stop-color="#146008"/>
<stop offset="0.784" stop-color="#082703"/>
</linearGradient>
<linearGradient id="paint1_linear_30_481" x1="58.625" y1="0" x2="58.625" y2="172.031" gradientUnits="userSpaceOnUse">
<stop offset="0.045" stop-color="#082703"/>
<stop offset="0.245" stop-color="#146008"/>
<stop offset="0.439" stop-color="#146008"/>
<stop offset="0.682076" stop-color="#082703"/>
</linearGradient>
<linearGradient id="paint2_linear_30_481" x1="58.625" y1="0" x2="58.625" y2="145.319" gradientUnits="userSpaceOnUse">
<stop offset="0.197492" stop-color="#2AA0D0"/>
<stop offset="0.611229" stop-color="#138AAF"/>
<stop offset="1" stop-color="#1F3845"/>
</linearGradient>
</defs>
</svg>
