<svg width="114" height="100" viewBox="0 0 114 100" fill="none" xmlns="http://www.w3.org/2000/svg">
<path d="M114 35.0673C114 71.5492 80.3092 93.7759 75.0766 96.5492C71.2867 98.6133 67.7781 99.9999 65.3752 99.9999C63.2814 99.9999 61.8944 98.9805 61.8944 97.2279C61.8944 95.4753 63.6487 93.4099 65.3752 92.0245C70.2113 88.5472 83.79 70.4753 83.79 53.4507C83.79 48.9539 81.3567 44.7965 78.5853 43.3833C75.4452 41.6586 60.8481 38.5193 60.8481 20.1372C60.8481 9.36193 69.5324 0.00244332 81.6962 0.00244545C97.6777 -8.44294e-05 114 12.1314 114 35.0673Z" fill="#BEBEBE"/>
<path d="M53.1822 35.0674C53.1822 71.5492 19.4623 93.776 14.2576 96.5492C10.4373 98.6134 6.95904 100 4.52704 100C2.43451 100 1.07538 98.9806 1.07538 97.228C1.07538 95.4754 2.79931 93.41 4.52705 92.0246C9.39104 88.5473 22.9406 70.4754 22.9406 53.4508C22.9406 48.954 20.5086 44.7966 17.7358 43.3834C14.5958 41.6561 -6.73472e-06 38.5181 -3.52047e-06 20.1347C-1.63646e-06 9.35949 8.71339 1.5235e-06 20.8772 3.65028e-06C36.8321 6.43993e-06 53.1822 12.1315 53.1822 35.0674Z" fill="#BEBEBE"/>
</svg>
