<svg width="123" height="136" viewBox="0 0 123 136" fill="none" xmlns="http://www.w3.org/2000/svg">
<path d="M51.5 39.5L57.5 29.5L63 17L64.5 25.5V29.5L66 35L69.5 39.5L77.5 49L83.5 56.5L88 63.5L91 70.5V80.5L88 88.5L83 96.5L75.5 101.5L67.5 104.5L58.5 105L52.5 103.5L44.5 99.5L38 94L32.5 82.5V71L36 60L44.5 47L51.5 39.5Z" fill="url(#paint0_linear_14_515)"/>
<path d="M73 48.3647L61.5 37C65.9 45.3012 67.8333 49.0176 68 50.5L69 64.6706L71 73.5647L75 78.5059L79 79L82 76.0353L84 71.0941V66.1529L82 60.2235L73 48.3647Z" fill="url(#paint1_linear_14_515)"/>
<path d="M71 93L62 96.5" stroke="black" stroke-opacity="0.8" stroke-width="1.5" stroke-linecap="round"/>
<path d="M53 93L62 96.5" stroke="black" stroke-opacity="0.8" stroke-width="1.5" stroke-linecap="round"/>
<path d="M71 88L62 91.5" stroke="black" stroke-opacity="0.8" stroke-width="1.5" stroke-linecap="round"/>
<path d="M71 88L62 91.5" stroke="#2E2E2E" stroke-width="1.5" stroke-linecap="round"/>
<path d="M53 88L62 91.5" stroke="black" stroke-opacity="0.8" stroke-width="1.5" stroke-linecap="round"/>
<path d="M53 88L62 91.5" stroke="#2E2E2E" stroke-width="1.5" stroke-linecap="round"/>
<path d="M90.6002 67.3001C89.5002 64.3001 87.8002 61.5001 86.0002 58.9001C82.2002 53.2001 77.6002 48.2001 73.2002 43.1001C71.4002 41.0001 69.6002 38.9001 68.1002 36.6001C65.7002 33.2001 64.1002 29.6001 65.4002 25.2001C65.6002 24.6001 65.4002 24.1001 64.7002 24.0001C64.0002 23.8001 63.8002 24.3001 63.7002 24.9001C63.6002 25.2001 63.6002 25.5001 63.5002 25.8001C62.8002 28.2001 62.2002 30.7001 61.0002 32.9001C59.9002 34.9001 60.0002 35.4001 61.6002 37.1001C65.4002 41.3001 69.6002 45.3001 73.0002 49.9001C75.5002 53.3001 78.2002 56.7001 80.6002 60.2001C83.0002 63.7001 84.5002 67.4001 83.0002 71.8001C82.4002 73.6001 81.8002 75.4001 80.6002 76.9001C78.9002 79.0001 77.1002 79.1001 75.1002 77.3001C74.8002 77.0001 74.5002 76.6001 74.2002 76.3001C71.6002 73.1001 70.1002 69.4001 69.7002 65.2001C69.4002 61.8001 69.1002 58.4001 68.8002 54.9001C68.6002 53.4001 68.7002 51.8001 67.9002 50.0001C67.0002 51.4001 67.3002 52.6001 67.3002 53.8001C67.5002 56.9001 68.0002 60.0001 68.2002 63.1001C68.4002 66.1001 68.9002 69.2001 70.1002 72.0001C71.1002 74.5001 72.5002 76.6001 74.4002 78.4001C76.7002 80.6001 79.5002 80.3001 81.5002 77.8001C82.6002 76.5001 83.2002 74.9001 83.7002 73.3001C84.7002 69.9001 85.5002 66.5001 83.9002 63.0001C82.6002 60.2001 81.1002 57.6001 79.1002 55.2001C77.7002 53.5001 76.3002 51.7001 75.1002 49.9001C73.6002 47.8001 72.0002 45.8001 70.2002 43.9001C67.6002 41.2001 65.3002 38.3001 62.5002 35.7001C61.9002 35.1001 61.6002 34.4001 62.1002 33.7001C62.7002 32.8001 63.1002 31.7001 63.7002 30.2001C64.6002 32.9001 65.4002 34.9001 66.6002 36.8001C69.7002 41.5001 73.7002 45.4001 77.3002 49.6001C81.0002 54.1001 84.8002 58.5001 87.7002 63.5001C90.1002 67.7001 91.1002 72.3001 90.7002 77.1001C90.5002 79.6001 89.6002 82.0001 89.1002 84.5001C88.7002 86.6001 87.3002 88.3001 86.3002 90.2001C84.9002 92.8001 83.2002 95.2001 81.0002 97.0001C73.9002 102.8 65.7002 105 56.6002 104C50.7002 103.3 46.1002 99.8001 41.3002 96.5001C41.1002 96.3001 40.9002 96.1001 40.7002 95.8001C35.5002 89.5001 32.4002 82.7001 33.1002 74.2001C33.8002 66.0001 36.6002 58.8001 41.4002 52.3001C43.9002 48.9001 46.8002 45.7001 49.8002 42.6001C51.2002 41.1001 52.4002 39.4001 53.6002 37.7001C56.0002 34.3001 57.9002 30.7001 59.7002 27.0001C60.3002 25.3001 61.0002 23.7001 61.6002 22.0001C62.2002 20.5001 63.1002 18.9001 63.6002 17.3001C63.6002 17.1001 63.6002 17.0001 63.6002 16.8001C63.5002 16.5001 63.5002 16.1001 63.4002 15.8001C63.2002 15.5001 63.0002 15.1001 62.8002 14.6001C62.0002 17.4001 61.0002 20.1001 59.9002 22.8001C57.4002 28.9001 54.4002 34.7001 50.2002 39.8001C47.4002 43.3001 44.0002 46.3001 41.3002 49.9001C37.2002 55.4001 33.9002 61.2001 32.5002 68.1001C31.9002 70.9001 31.8002 73.7001 31.6002 76.5001C31.3002 79.6001 31.8002 82.7001 33.0002 85.7001C33.7002 87.3001 34.4002 88.9001 35.2002 90.5001C37.1002 94.4001 39.6002 97.8001 43.6002 99.8001C44.5002 100.2 45.3002 100.9 46.1002 101.4C49.9002 103.7 54.0002 105.4 58.6002 105.5C63.5002 105.6 68.2002 105 72.8002 103.2C80.6002 100.3 85.9002 94.8001 89.5002 87.4001C90.7002 85.0001 91.2002 82.3001 91.6002 79.7001C92.1002 75.8001 92.1002 71.5001 90.6002 67.3001Z" fill="black" fill-opacity="0.8"/>
<path d="M90.6002 67.3001C89.5002 64.3001 87.8002 61.5001 86.0002 58.9001C82.2002 53.2001 77.6002 48.2001 73.2002 43.1001C71.4002 41.0001 69.6002 38.9001 68.1002 36.6001C65.7002 33.2001 64.1002 29.6001 65.4002 25.2001C65.6002 24.6001 65.4002 24.1001 64.7002 24.0001C64.0002 23.8001 63.8002 24.3001 63.7002 24.9001C63.6002 25.2001 63.6002 25.5001 63.5002 25.8001C62.8002 28.2001 62.2002 30.7001 61.0002 32.9001C59.9002 34.9001 60.0002 35.4001 61.6002 37.1001C65.4002 41.3001 69.6002 45.3001 73.0002 49.9001C75.5002 53.3001 78.2002 56.7001 80.6002 60.2001C83.0002 63.7001 84.5002 67.4001 83.0002 71.8001C82.4002 73.6001 81.8002 75.4001 80.6002 76.9001C78.9002 79.0001 77.1002 79.1001 75.1002 77.3001C74.8002 77.0001 74.5002 76.6001 74.2002 76.3001C71.6002 73.1001 70.1002 69.4001 69.7002 65.2001C69.4002 61.8001 69.1002 58.4001 68.8002 54.9001C68.6002 53.4001 68.7002 51.8001 67.9002 50.0001C67.0002 51.4001 67.3002 52.6001 67.3002 53.8001C67.5002 56.9001 68.0002 60.0001 68.2002 63.1001C68.4002 66.1001 68.9002 69.2001 70.1002 72.0001C71.1002 74.5001 72.5002 76.6001 74.4002 78.4001C76.7002 80.6001 79.5002 80.3001 81.5002 77.8001C82.6002 76.5001 83.2002 74.9001 83.7002 73.3001C84.7002 69.9001 85.5002 66.5001 83.9002 63.0001C82.6002 60.2001 81.1002 57.6001 79.1002 55.2001C77.7002 53.5001 76.3002 51.7001 75.1002 49.9001C73.6002 47.8001 72.0002 45.8001 70.2002 43.9001C67.6002 41.2001 65.3002 38.3001 62.5002 35.7001C61.9002 35.1001 61.6002 34.4001 62.1002 33.7001C62.7002 32.8001 63.1002 31.7001 63.7002 30.2001C64.6002 32.9001 65.4002 34.9001 66.6002 36.8001C69.7002 41.5001 73.7002 45.4001 77.3002 49.6001C81.0002 54.1001 84.8002 58.5001 87.7002 63.5001C90.1002 67.7001 91.1002 72.3001 90.7002 77.1001C90.5002 79.6001 89.6002 82.0001 89.1002 84.5001C88.7002 86.6001 87.3002 88.3001 86.3002 90.2001C84.9002 92.8001 83.2002 95.2001 81.0002 97.0001C73.9002 102.8 65.7002 105 56.6002 104C50.7002 103.3 46.1002 99.8001 41.3002 96.5001C41.1002 96.3001 40.9002 96.1001 40.7002 95.8001C35.5002 89.5001 32.4002 82.7001 33.1002 74.2001C33.8002 66.0001 36.6002 58.8001 41.4002 52.3001C43.9002 48.9001 46.8002 45.7001 49.8002 42.6001C51.2002 41.1001 52.4002 39.4001 53.6002 37.7001C56.0002 34.3001 57.9002 30.7001 59.7002 27.0001C60.3002 25.3001 61.0002 23.7001 61.6002 22.0001C62.2002 20.5001 63.1002 18.9001 63.6002 17.3001C63.6002 17.1001 63.6002 17.0001 63.6002 16.8001C63.5002 16.5001 63.5002 16.1001 63.4002 15.8001C63.2002 15.5001 63.0002 15.1001 62.8002 14.6001C62.0002 17.4001 61.0002 20.1001 59.9002 22.8001C57.4002 28.9001 54.4002 34.7001 50.2002 39.8001C47.4002 43.3001 44.0002 46.3001 41.3002 49.9001C37.2002 55.4001 33.9002 61.2001 32.5002 68.1001C31.9002 70.9001 31.8002 73.7001 31.6002 76.5001C31.3002 79.6001 31.8002 82.7001 33.0002 85.7001C33.7002 87.3001 34.4002 88.9001 35.2002 90.5001C37.1002 94.4001 39.6002 97.8001 43.6002 99.8001C44.5002 100.2 45.3002 100.9 46.1002 101.4C49.9002 103.7 54.0002 105.4 58.6002 105.5C63.5002 105.6 68.2002 105 72.8002 103.2C80.6002 100.3 85.9002 94.8001 89.5002 87.4001C90.7002 85.0001 91.2002 82.3001 91.6002 79.7001C92.1002 75.8001 92.1002 71.5001 90.6002 67.3001Z" fill="#2E2E2E"/>
<path d="M4.57031 123.297C5.59115 123.297 6.34896 123.526 6.84375 123.984C7.33854 124.443 7.58594 125.174 7.58594 126.18V132H6.64062L6.39062 130.734H6.32812C6.08854 131.047 5.83854 131.31 5.57812 131.523C5.31771 131.732 5.01562 131.891 4.67188 132C4.33333 132.104 3.91667 132.156 3.42188 132.156C2.90104 132.156 2.4375 132.065 2.03125 131.883C1.63021 131.701 1.3125 131.424 1.07812 131.055C0.848958 130.685 0.734375 130.216 0.734375 129.648C0.734375 128.794 1.07292 128.138 1.75 127.68C2.42708 127.221 3.45833 126.971 4.84375 126.93L6.32031 126.867V126.344C6.32031 125.604 6.16146 125.086 5.84375 124.789C5.52604 124.492 5.07812 124.344 4.5 124.344C4.05208 124.344 3.625 124.409 3.21875 124.539C2.8125 124.669 2.42708 124.823 2.0625 125L1.66406 124.016C2.04948 123.818 2.49219 123.648 2.99219 123.508C3.49219 123.367 4.01823 123.297 4.57031 123.297ZM6.30469 127.781L5 127.836C3.93229 127.878 3.17969 128.052 2.74219 128.359C2.30469 128.667 2.08594 129.102 2.08594 129.664C2.08594 130.154 2.23438 130.516 2.53125 130.75C2.82812 130.984 3.22135 131.102 3.71094 131.102C4.47135 131.102 5.09375 130.891 5.57812 130.469C6.0625 130.047 6.30469 129.414 6.30469 128.57V127.781ZM14.0703 124.453H11.9375V132H10.6406V124.453H9.125V123.828L10.6406 123.398V122.828C10.6406 122.109 10.7474 121.526 10.9609 121.078C11.1745 120.625 11.4844 120.292 11.8906 120.078C12.2969 119.865 12.7917 119.758 13.375 119.758C13.7031 119.758 14.0026 119.786 14.2734 119.844C14.5495 119.901 14.7917 119.966 15 120.039L14.6641 121.062C14.487 121.005 14.2865 120.953 14.0625 120.906C13.8438 120.854 13.6198 120.828 13.3906 120.828C12.8958 120.828 12.5286 120.99 12.2891 121.312C12.0547 121.63 11.9375 122.13 11.9375 122.812V123.438H14.0703V124.453ZM16.9453 132H15.6406V119.844H16.9453V132ZM22.8828 123.297C23.9036 123.297 24.6615 123.526 25.1562 123.984C25.651 124.443 25.8984 125.174 25.8984 126.18V132H24.9531L24.7031 130.734H24.6406C24.401 131.047 24.151 131.31 23.8906 131.523C23.6302 131.732 23.3281 131.891 22.9844 132C22.6458 132.104 22.2292 132.156 21.7344 132.156C21.2135 132.156 20.75 132.065 20.3438 131.883C19.9427 131.701 19.625 131.424 19.3906 131.055C19.1615 130.685 19.0469 130.216 19.0469 129.648C19.0469 128.794 19.3854 128.138 20.0625 127.68C20.7396 127.221 21.7708 126.971 23.1562 126.93L24.6328 126.867V126.344C24.6328 125.604 24.474 125.086 24.1562 124.789C23.8385 124.492 23.3906 124.344 22.8125 124.344C22.3646 124.344 21.9375 124.409 21.5312 124.539C21.125 124.669 20.7396 124.823 20.375 125L19.9766 124.016C20.362 123.818 20.8047 123.648 21.3047 123.508C21.8047 123.367 22.3307 123.297 22.8828 123.297ZM24.6172 127.781L23.3125 127.836C22.2448 127.878 21.4922 128.052 21.0547 128.359C20.6172 128.667 20.3984 129.102 20.3984 129.664C20.3984 130.154 20.5469 130.516 20.8438 130.75C21.1406 130.984 21.5339 131.102 22.0234 131.102C22.7839 131.102 23.4062 130.891 23.8906 130.469C24.375 130.047 24.6172 129.414 24.6172 128.57V127.781ZM25.2422 120.195C25.2057 120.617 25.0859 120.987 24.8828 121.305C24.6849 121.617 24.4089 121.862 24.0547 122.039C23.7005 122.216 23.2734 122.305 22.7734 122.305C22.0078 122.305 21.4271 122.115 21.0312 121.734C20.6406 121.354 20.4245 120.841 20.3828 120.195H21.1953C21.2266 120.487 21.3073 120.708 21.4375 120.859C21.5677 121.01 21.7474 121.115 21.9766 121.172C22.2057 121.224 22.4818 121.25 22.8047 121.25C23.0911 121.25 23.349 121.221 23.5781 121.164C23.8073 121.102 23.9948 120.995 24.1406 120.844C24.2865 120.688 24.3776 120.471 24.4141 120.195H25.2422ZM42.0234 123.281C42.9661 123.281 43.6771 123.529 44.1562 124.023C44.6354 124.513 44.875 125.302 44.875 126.391V132H43.5938V126.453C43.5938 125.76 43.4427 125.242 43.1406 124.898C42.8438 124.549 42.401 124.375 41.8125 124.375C40.9844 124.375 40.3828 124.615 40.0078 125.094C39.6328 125.573 39.4453 126.279 39.4453 127.211V132H38.1562V126.453C38.1562 125.99 38.0885 125.604 37.9531 125.297C37.8229 124.99 37.625 124.76 37.3594 124.609C37.099 124.453 36.7682 124.375 36.3672 124.375C35.7995 124.375 35.3438 124.492 35 124.727C34.6562 124.961 34.4062 125.31 34.25 125.773C34.099 126.232 34.0234 126.797 34.0234 127.469V132H32.7266V123.438H33.7734L33.9688 124.648H34.0391C34.2109 124.352 34.4271 124.102 34.6875 123.898C34.9479 123.695 35.2396 123.542 35.5625 123.438C35.8854 123.333 36.2292 123.281 36.5938 123.281C37.2448 123.281 37.7891 123.404 38.2266 123.648C38.6693 123.888 38.9896 124.255 39.1875 124.75H39.2578C39.5391 124.255 39.9245 123.888 40.4141 123.648C40.9036 123.404 41.4401 123.281 42.0234 123.281ZM50.7422 123.297C51.763 123.297 52.5208 123.526 53.0156 123.984C53.5104 124.443 53.7578 125.174 53.7578 126.18V132H52.8125L52.5625 130.734H52.5C52.2604 131.047 52.0104 131.31 51.75 131.523C51.4896 131.732 51.1875 131.891 50.8438 132C50.5052 132.104 50.0885 132.156 49.5938 132.156C49.0729 132.156 48.6094 132.065 48.2031 131.883C47.8021 131.701 47.4844 131.424 47.25 131.055C47.0208 130.685 46.9062 130.216 46.9062 129.648C46.9062 128.794 47.2448 128.138 47.9219 127.68C48.599 127.221 49.6302 126.971 51.0156 126.93L52.4922 126.867V126.344C52.4922 125.604 52.3333 125.086 52.0156 124.789C51.6979 124.492 51.25 124.344 50.6719 124.344C50.224 124.344 49.7969 124.409 49.3906 124.539C48.9844 124.669 48.599 124.823 48.2344 125L47.8359 124.016C48.2214 123.818 48.6641 123.648 49.1641 123.508C49.6641 123.367 50.1901 123.297 50.7422 123.297ZM52.4766 127.781L51.1719 127.836C50.1042 127.878 49.3516 128.052 48.9141 128.359C48.4766 128.667 48.2578 129.102 48.2578 129.664C48.2578 130.154 48.4062 130.516 48.7031 130.75C49 130.984 49.3932 131.102 49.8828 131.102C50.6432 131.102 51.2656 130.891 51.75 130.469C52.2344 130.047 52.4766 129.414 52.4766 128.57V127.781ZM57.7266 123.438V132H56.4297V123.438H57.7266ZM57.0938 120.234C57.3073 120.234 57.4896 120.305 57.6406 120.445C57.7969 120.581 57.875 120.794 57.875 121.086C57.875 121.372 57.7969 121.586 57.6406 121.727C57.4896 121.867 57.3073 121.938 57.0938 121.938C56.8698 121.938 56.6823 121.867 56.5312 121.727C56.3854 121.586 56.3125 121.372 56.3125 121.086C56.3125 120.794 56.3854 120.581 56.5312 120.445C56.6823 120.305 56.8698 120.234 57.0938 120.234ZM73.9297 123.281C74.8724 123.281 75.5833 123.529 76.0625 124.023C76.5417 124.513 76.7812 125.302 76.7812 126.391V132H75.5V126.453C75.5 125.76 75.349 125.242 75.0469 124.898C74.75 124.549 74.3073 124.375 73.7188 124.375C72.8906 124.375 72.2891 124.615 71.9141 125.094C71.5391 125.573 71.3516 126.279 71.3516 127.211V132H70.0625V126.453C70.0625 125.99 69.9948 125.604 69.8594 125.297C69.7292 124.99 69.5312 124.76 69.2656 124.609C69.0052 124.453 68.6745 124.375 68.2734 124.375C67.7057 124.375 67.25 124.492 66.9062 124.727C66.5625 124.961 66.3125 125.31 66.1562 125.773C66.0052 126.232 65.9297 126.797 65.9297 127.469V132H64.6328V123.438H65.6797L65.875 124.648H65.9453C66.1172 124.352 66.3333 124.102 66.5938 123.898C66.8542 123.695 67.1458 123.542 67.4688 123.438C67.7917 123.333 68.1354 123.281 68.5 123.281C69.151 123.281 69.6953 123.404 70.1328 123.648C70.5755 123.888 70.8958 124.255 71.0938 124.75H71.1641C71.4453 124.255 71.8307 123.888 72.3203 123.648C72.8099 123.404 73.3464 123.281 73.9297 123.281ZM86.5156 123.438V132H85.4531L85.2656 130.797H85.1953C85.0182 131.094 84.7891 131.344 84.5078 131.547C84.2266 131.75 83.9089 131.901 83.5547 132C83.2057 132.104 82.8333 132.156 82.4375 132.156C81.7604 132.156 81.1927 132.047 80.7344 131.828C80.276 131.609 79.9297 131.271 79.6953 130.812C79.4661 130.354 79.3516 129.766 79.3516 129.047V123.438H80.6641V128.953C80.6641 129.667 80.8255 130.201 81.1484 130.555C81.4714 130.904 81.9635 131.078 82.625 131.078C83.2604 131.078 83.7656 130.958 84.1406 130.719C84.5208 130.479 84.7943 130.128 84.9609 129.664C85.1276 129.195 85.2109 128.622 85.2109 127.945V123.438H86.5156ZM90.5625 132H89.2578V119.844H90.5625V132ZM96.0703 131.094C96.2839 131.094 96.5026 131.076 96.7266 131.039C96.9505 131.003 97.1328 130.958 97.2734 130.906V131.914C97.1224 131.982 96.9115 132.039 96.6406 132.086C96.375 132.133 96.1146 132.156 95.8594 132.156C95.4062 132.156 94.9948 132.078 94.625 131.922C94.2552 131.76 93.9583 131.49 93.7344 131.109C93.5156 130.729 93.4062 130.203 93.4062 129.531V124.453H92.1875V123.82L93.4141 123.312L93.9297 121.453H94.7109V123.438H97.2188V124.453H94.7109V129.492C94.7109 130.029 94.8333 130.43 95.0781 130.695C95.3281 130.961 95.6589 131.094 96.0703 131.094ZM102.305 123.281C103.034 123.281 103.659 123.443 104.18 123.766C104.701 124.089 105.099 124.542 105.375 125.125C105.651 125.703 105.789 126.38 105.789 127.156V127.961H99.875C99.8906 128.966 100.141 129.732 100.625 130.258C101.109 130.784 101.792 131.047 102.672 131.047C103.214 131.047 103.693 130.997 104.109 130.898C104.526 130.799 104.958 130.654 105.406 130.461V131.602C104.974 131.794 104.544 131.935 104.117 132.023C103.695 132.112 103.195 132.156 102.617 132.156C101.794 132.156 101.076 131.99 100.461 131.656C99.8516 131.318 99.3776 130.823 99.0391 130.172C98.7005 129.521 98.5312 128.724 98.5312 127.781C98.5312 126.859 98.6849 126.062 98.9922 125.391C99.3047 124.714 99.7422 124.193 100.305 123.828C100.872 123.464 101.539 123.281 102.305 123.281ZM102.289 124.344C101.596 124.344 101.044 124.57 100.633 125.023C100.221 125.477 99.9766 126.109 99.8984 126.922H104.43C104.424 126.411 104.344 125.964 104.188 125.578C104.036 125.188 103.805 124.885 103.492 124.672C103.18 124.453 102.779 124.344 102.289 124.344Z" fill="black" fill-opacity="0.8"/>
<defs>
<linearGradient id="paint0_linear_14_515" x1="62" y1="39.5" x2="61.75" y2="105" gradientUnits="userSpaceOnUse">
<stop stop-color="#D9D9D9" stop-opacity="0"/>
<stop offset="1" stop-color="#89BFFF"/>
</linearGradient>
<linearGradient id="paint1_linear_14_515" x1="80.5" y1="79" x2="71.5" y2="50" gradientUnits="userSpaceOnUse">
<stop stop-color="white"/>
<stop offset="1" stop-color="white" stop-opacity="0"/>
</linearGradient>
</defs>
</svg>
