<svg width="37" height="40" viewBox="0 0 56 61" fill="none" xmlns="http://www.w3.org/2000/svg">
<path d="M38.7422 6.59961C34.426 6.59961 30.5953 8.4582 28 11.6527C25.4047 8.4582 21.574 6.59961 17.2578 6.59961C13.4985 6.60457 9.8945 8.2359 7.23628 11.1358C4.57806 14.0357 3.08267 17.9673 3.07812 22.0684C3.07813 39.023 25.8107 52.5699 26.7775 53.1395C27.1532 53.3602 27.5733 53.4757 28 53.4757C28.4267 53.4757 28.8468 53.3602 29.2225 53.1395C30.1893 52.5699 52.9219 39.023 52.9219 22.0684C52.9173 17.9673 51.4219 14.0357 48.7637 11.1358C46.1055 8.2359 42.5015 6.60457 38.7422 6.59961ZM37.5627 39.9652C34.5705 42.7352 31.3719 45.2282 28 47.4184C24.6281 45.2282 21.4295 42.7352 18.4373 39.9652C13.7816 35.6082 8.23437 28.9637 8.23437 22.0684C8.23437 19.4576 9.18506 16.9538 10.8773 15.1078C12.5695 13.2617 14.8646 12.2246 17.2578 12.2246C21.082 12.2246 24.2832 14.4277 25.6131 17.9762C25.8066 18.4935 26.1371 18.9361 26.5622 19.2477C26.9873 19.5593 27.4878 19.7257 28 19.7257C28.5122 19.7257 29.0127 19.5593 29.4378 19.2477C29.8629 18.9361 30.1933 18.4935 30.3869 17.9762C31.7168 14.4277 34.918 12.2246 38.7422 12.2246C41.1353 12.2246 43.4305 13.2617 45.1227 15.1078C46.8149 16.9538 47.7656 19.4576 47.7656 22.0684C47.7656 28.9637 42.2184 35.6082 37.5627 39.9652Z" fill="#FF6161"/>
<path d="M37.5627 39.9652C34.5705 42.7352 31.3719 45.2282 28 47.4184C24.6281 45.2282 21.4295 42.7352 18.4373 39.9652C13.7816 35.6082 8.23437 28.9637 8.23437 22.0684C8.23437 19.4576 9.18506 16.9538 10.8773 15.1078C12.5695 13.2617 14.8646 12.2246 17.2578 12.2246C21.082 12.2246 24.2832 14.4277 25.6131 17.9762C25.8066 18.4935 26.1371 18.9361 26.5622 19.2477C26.9873 19.5593 27.4878 19.7257 28 19.7257C28.5122 19.7257 29.0127 19.5593 29.4378 19.2477C29.8629 18.9361 30.1933 18.4935 30.3869 17.9762C31.7168 14.4277 34.918 12.2246 38.7422 12.2246C41.1353 12.2246 43.4305 13.2617 45.1227 15.1078C46.8149 16.9538 47.7656 19.4576 47.7656 22.0684C47.7656 28.9637 42.2184 35.6082 37.5627 39.9652Z" fill="#FF6161"/>
</svg>
