<svg width="475" height="237" viewBox="0 0 475 237" fill="none" xmlns="http://www.w3.org/2000/svg">
<path d="M208.613 177.784L194.565 207.414L191.358 235.243H361.462H382.382H407.96H435.826H447.431H458.578H474V89.6927H467.587L458.578 93.4967L451.859 97.3006L447.431 84.2871L439.032 63.6658L435.826 60.6627H433.535L431.55 63.6658L428.038 72.4749L422.999 84.2871L420.709 87.6907H418.724L411.394 72.4749L402.996 48.8505L382.382 0L378.02 10.2933L383.564 21.5119L386.275 27.873L386.891 35.7375L384.92 62.454L384.673 65.808L382.086 71.3594L380.731 72.9786L380.977 61.4131L381.347 47.997L382.702 41.4047L383.072 34.0027L377.281 22.8998L375.309 14.2256L369.555 25.6265L362.531 45.447L353.828 58.06L341.154 72.4749L317.486 101.905L309.087 120.925L301.3 130.135L292.291 133.538L283.892 138.343L273.356 130.135L263.431 120.925L260.53 118.523H258.545L252.742 126.531L232.892 155.561L217.622 166.172L208.613 177.784Z" fill="#D9D9D9"/>
<path d="M208.613 177.784L194.565 207.414L191.358 235.243H361.462H382.382H407.96H435.826H447.431H458.578H474V89.6927H467.587L458.578 93.4967L451.859 97.3006L447.431 84.2871L439.032 63.6658L435.826 60.6627H433.535L431.55 63.6658L428.038 72.4749L422.999 84.2871L420.709 87.6907H418.724L411.394 72.4749L402.996 48.8505L382.382 0L378.02 10.2933L383.564 21.5119L386.275 27.873L386.891 35.7375L384.92 62.454L384.673 65.808L382.086 71.3594L380.731 72.9786L380.977 61.4131L381.347 47.997L382.702 41.4047L383.072 34.0027L377.281 22.8998L375.309 14.2256L369.555 25.6265L362.531 45.447L353.828 58.06L341.154 72.4749L317.486 101.905L309.087 120.925L301.3 130.135L292.291 133.538L283.892 138.343L273.356 130.135L263.431 120.925L260.53 118.523H258.545L252.742 126.531L232.892 155.561L217.622 166.172L208.613 177.784Z" fill="url(#paint0_linear_155_1014)"/>
<path d="M398.965 102.355L418.679 87.6665H420.65L400.814 109.41C398.448 109.687 391.819 123.173 389.971 123.173C385.823 124.792 377.059 128.932 375.186 132.541C373.313 136.149 386.48 141.6 393.298 143.875L447.756 162.727C454.163 166.042 466.706 175.449 465.622 186.552C464.537 197.654 452.028 205.056 445.908 207.369L404.51 222.752C402.128 223.831 395.959 226.36 390.341 227.84C384.722 229.321 384.632 233.315 385.289 235.127H310.625C312.596 233.045 315.578 224.741 331.94 216.969C348.302 209.197 364.795 205.789 370.997 205.056L415.968 195.804C419.788 193.491 427.501 187.754 427.796 183.313C428.092 178.872 421.923 175.911 418.802 174.986L381.223 167.815L350.667 161.223C347.423 160.105 340.811 156.181 340.318 149.426C339.825 142.672 351.201 132.579 356.951 128.377L379.745 115.077L398.965 102.355Z" fill="#70B1FF"/>
<path d="M207.991 182.041L194.069 206.791L191.851 216.622" stroke="#6D6D6D"/>
<path d="M280.254 133.055L295.323 133.497L289.201 135.707L283.55 138.36L283.079 137.476L282.137 136.149L280.725 133.939L280.254 133.055Z" fill="#70B1FF"/>
<path d="M210.628 195.738C193.604 184.475 219.519 162.264 223.33 160.157C227.141 158.051 231.155 156.828 231.155 156.828C224.091 166.111 218.913 172.938 224.686 179.47C243.052 199.362 265.655 176.777 293.91 198.478C322.165 220.178 278.391 235.242 260.355 235.242H243.229H205.897L0.999969 236L190.559 214.933C190.559 214.933 226.251 209.783 233.237 209.783C240.224 209.783 267.406 211.07 260.801 200.185C254.196 189.301 223.056 204.022 210.628 195.738Z" fill="#70B1FF"/>
<path d="M280.254 133.055L295.323 133.497L289.201 135.707L283.55 138.36L283.079 137.476L282.137 136.149L280.725 133.939L280.254 133.055Z" stroke="#89BFFF"/>
<path d="M210.628 195.738C193.604 184.475 219.519 162.264 223.33 160.157C227.141 158.051 231.155 156.828 231.155 156.828C224.091 166.111 218.913 172.938 224.686 179.47C243.052 199.362 265.655 176.777 293.91 198.478C322.165 220.178 278.391 235.242 260.355 235.242H243.229H205.897L0.999969 236L190.559 214.933C190.559 214.933 226.251 209.783 233.237 209.783C240.224 209.783 267.406 211.07 260.801 200.185C254.196 189.301 223.056 204.022 210.628 195.738Z" stroke="#89BFFF"/>
<path d="M374.94 10.8715C375.556 7.51752 375.936 13.2478 376.172 14.1099C376.524 15.394 376.241 17.2637 376.382 18.5878C376.52 19.8899 376.873 21.3092 377.234 22.5718C377.713 24.2471 378.58 25.6216 379.516 27.1208C379.998 27.8923 380.437 28.6974 380.971 29.4394C381.529 30.2157 381.821 31.2557 382.224 32.1111C382.498 32.6904 382.801 33.1937 382.814 33.8412C382.819 34.0818 382.784 34.3432 382.82 34.5827C383.153 36.7711 382.857 39.0281 382.688 41.209C382.648 41.7275 382.404 42.1579 382.356 42.6743C382.318 43.0842 382.168 43.5173 382.03 43.9042C381.855 44.3977 381.952 45.129 381.66 45.5402C381.315 46.0264 381.66 46.4542 381.516 46.9937C381.164 48.315 381.366 49.7524 381.146 51.0954C381.005 51.9572 381.121 52.9382 381.121 53.8024C381.121 54.9182 380.895 55.9627 380.895 57.0862C380.895 58.7487 381.008 60.3707 381.008 62.0176C381.008 63.021 380.895 64.0109 380.895 65.013C380.895 66.1386 380.834 67.2456 380.732 68.3673C380.654 69.2285 380.67 70.0931 380.67 70.9566C380.67 71.5546 380.429 72.7377 380.72 73.3164C380.786 73.4471 381.341 72.5208 381.397 72.3984C381.511 72.1512 381.761 72.0335 381.911 71.8099C382.311 71.2114 382.505 70.4655 382.801 69.8209C383.495 68.3137 384.646 66.8498 384.933 65.2072C385.202 63.6624 385.184 62.0997 385.184 60.5405C385.184 59.2914 385.357 58.0703 385.403 56.8272C385.439 55.8424 385.412 54.8797 385.522 53.8966C385.665 52.6217 385.635 51.3457 385.635 50.0656C385.635 49.2605 385.835 48.5219 385.861 47.7411C385.935 45.4455 386.593 43.1787 386.644 40.8853C386.688 38.9338 386.763 36.9961 386.763 35.0417C386.763 34.0138 386.763 32.986 386.763 31.9581C386.763 31.4546 386.879 30.7909 386.713 30.2986C386.493 29.645 386.321 29.1544 386.312 28.4625C386.303 27.7924 386.212 27.0494 385.961 26.4205C385.201 24.5171 383.992 22.7993 383.127 20.9417C382.649 19.9144 382.356 18.8938 381.936 17.8581C381.695 17.2631 381.273 16.7586 381.065 16.1515C380.693 15.0653 380.2 13.9756 379.635 12.9678C379.282 12.337 378.825 11.6491 378.369 11.0788C378.161 10.8186 378.09 10.4536 377.874 10.1726C377.329 9.46511 378.02 8.21145 378.02 8.21145C377.705 7.65234 381.716 0.693848 381.716 0.693848" stroke="black" stroke-opacity="0.5" stroke-linecap="square"/>
<path d="M310.008 236.052C311.169 234.214 314.198 229.46 314.198 229.46C314.198 229.46 316.156 227.044 317.647 225.994C318.855 225.143 330.689 217.192 331.816 216.297L342.412 211.996C342.412 211.996 347.587 211.186 352.885 208.411C358.183 205.635 337.975 191.892 337.43 190.282C337.066 189.203 336.406 188.155 336.128 187.068C335.114 183.101 332.269 179.421 330.319 175.805C329.232 173.789 327.922 171.929 326.427 170.159C323.715 166.95 321.733 163.557 319.754 159.927C318.324 157.303 316.603 155.033 315.57 152.194C315.284 151.409 314.737 147.894 313.462 147.894C312.873 147.894 312.164 148.367 311.941 148.856C311.66 149.47 311.674 150.196 311.604 150.848C311.508 151.755 310.945 152.534 310.858 153.457C310.701 155.112 310.924 156.786 310.77 158.443C310.579 160.495 310.145 162.532 309.834 164.569C309.456 167.038 309.258 169.487 308.722 171.931C308.35 173.626 308.259 175.792 307.141 177.261C306.683 177.863 305.602 174.004 305.561 173.703C304.999 169.614 302.86 165.756 300.586 162.317C299.873 161.238 299.369 160.051 298.596 158.993C297.963 158.125 297.177 157.433 296.606 156.506C295.116 154.091 292.911 152.322 291.221 150.092C290.158 148.689 288.324 147.496 287.007 146.26C285.6 144.939 284.617 142.689 283.495 141.109C282.244 139.348 281.006 137.623 279.808 135.807C279.125 134.773 278.726 133.507 277.906 132.566C277.45 132.043 277.069 131.706 276.837 131.055C275.522 127.351 271.28 124.846 268.57 122.168C267.5 121.111 258.836 114.561 258.005 115.644C257.673 116.077 257.787 116.618 257.376 117.1C257.116 117.405 256.941 117.937 256.85 118.322C256.681 119.032 256.152 119.717 256.045 120.424C255.59 123.41 252.999 126.707 251.289 129.214C249.368 132.033 247.394 134.77 245.553 137.62C244.964 138.533 244.616 139.581 244.017 140.505C243.464 141.358 242.479 142.213 242.144 143.156C241.862 143.951 242 144.808 241.676 145.642C241.387 146.383 240.67 146.669 240.359 147.372C239.755 148.737 228.937 159.72 228.937 159.72C227.652 161.277 226.125 163.718 224.702 165.156C222.514 167.365 221.44 170.77 221.298 173.83C221.192 176.125 223.021 177.66 224.255 179.728C225.143 181.217 228.848 182.862 230.046 184.123C231.87 186.044 234.435 186.959 236.945 187.809C238.456 188.321 241.921 188.313 243.476 188.634C246.273 189.21 246.95 188.727 249.759 189.096C253.066 189.531 255.172 188.167 258.503 188.167C262.346 188.167 267.039 187.404 270.75 188.565C272.127 188.996 273.399 189.23 274.804 189.458C275.726 189.607 276.559 190.472 277.379 190.9C279.44 191.975 281.21 193.711 283.437 194.485C288.009 196.073 291.572 199.729 295.494 202.341C298.416 204.288 302.4 207.717 302.4 211.283C302.4 212.921 301.78 214.722 301.347 216.297C300.897 217.932 299.552 219.321 298.318 220.541C297.501 221.348 297.137 222.43 296.284 223.219C294.577 224.797 292.097 226.271 289.977 227.285C286.941 228.737 285.413 230.271 282.286 231.542C280.844 232.128 277.604 232.814 276.619 233.045C275.285 233.273 262.696 235.821 261.71 235.936" stroke="url(#paint1_linear_155_1014)" stroke-opacity="0.5" stroke-linecap="round"/>
<path d="M285.434 139.244C287.788 137.918 293.821 135.516 295.323 135.266C299.006 134.652 294.657 134.328 297.678 132.613C300.727 130.883 303.721 131.247 305.728 128.422C307.254 126.272 308.502 123.534 309.54 121.099C311.004 117.664 313.703 115.23 315.745 111.779C318.153 107.711 321.371 103.407 324.432 99.6307C327.64 95.6728 331.772 92.0406 333.031 87.3155C333.846 84.2539 338.237 81.8934 338.47 79.3398M368.163 28.914C369.428 22.3835 373.585 18.1349 374.817 11.5425M382.332 1.04102C383.195 1.50364 383.561 5.39623 384.711 7.10028C386.146 9.22704 387.23 11.6777 388.986 13.5318C394.875 19.7511 393.285 29.7726 397.033 37.2226C398.933 41.0005 399.102 45.1021 401.11 48.8721C402.742 51.9351 403.855 55.2165 404.834 58.5245C405.721 61.5232 407.848 63.8768 407.848 67.0121C407.848 71.4831 411.837 74.1265 411.837 78.2455C411.837 80.8152 411.588 82.3389 413.609 84.2367C415.563 86.0704 418.063 87.4353 421.143 87.4353C422.66 88.1473 425.184 72.7838 426.197 70.8814C427.837 67.803 428.546 55.1543 434.618 60.8545C436.482 62.6036 439.436 65.5105 439.804 67.9274C440.445 72.1411 443.198 77.996 446.278 80.6117C449.27 83.1533 450.787 91.4828 451.576 95.1842C452.262 98.4041 470.202 88.8862 473.877 89.7484" stroke="black" stroke-opacity="0.5" stroke-linecap="square"/>
<path d="M370.37 48.0088C370.37 63.9775 356.579 76.9227 339.567 76.9227C324.036 75.7683 310.324 62.7614 308.765 48.0088C315.04 29.2099 327.25 16.9776 339.567 19.095C354.663 21.9375 368.838 34.3117 370.37 48.0088Z" fill="#FF6161"/>
<path d="M360.285 23.2745C363.131 24.4196 365.637 27.4674 367.794 29.4922C368.287 29.9548 368.228 31.0264 369.338 32.2515C370.058 33.0466 370.557 34.214 371.246 35.0841C371.631 35.5711 372.438 36.0954 372.688 36.6045C373.58 38.4176 375.107 40.6213 375.107 42.6239C375.107 44.8359 375.308 47.1464 374.907 49.3305C374.412 52.0233 374.3 54.3927 373.309 56.9953C372.155 60.0303 370.096 62.395 368.495 65.2433C365.637 70.3253 360.144 72.8497 355.048 75.6573C353.835 76.3258 352.089 77.1564 350.744 77.5319C349.689 77.8262 348.522 78.6711 347.46 78.7399C344.884 78.9066 342.229 78.7399 339.649 78.7399C335.043 78.7399 331.896 77.11 327.982 75.0827L327.845 75.0117C325.885 73.9964 324.892 72.2244 322.964 71.2418C320.958 70.2194 319.455 68.5156 317.417 67.4719C316.694 67.102 314.412 65.9599 314.088 65.3266C313.738 64.6413 312.891 64.3688 312.313 63.8269C311.806 63.3503 311.46 62.4427 310.96 62.0774C309.652 61.1223 308.581 58.6405 308.075 57.0578C307.727 55.9672 306.811 54.6947 306.811 53.6211C306.811 52.2276 306.106 50.412 306.456 49.1014C306.926 47.3358 308.307 45.7659 308.408 43.8736C308.536 41.4633 310.804 39.2146 310.804 36.7503C310.804 35.0057 311.877 33.784 312.602 32.2723C313.161 31.1049 314.099 31.0493 314.976 30.1478C315.604 29.5021 315.724 28.646 316.307 28.0442C317.571 26.7393 318.463 25.0905 319.436 23.6703C320.142 22.639 321.951 21.0043 323.252 21.0043C324.14 21.0043 328.114 20.1014 328.688 19.338C330.186 17.3469 335.086 17.6301 337.564 17.6301C340.005 17.6301 342.425 17.4781 344.731 18.3799C347.655 19.5235 351.355 18.773 354.338 19.6713C356.578 20.3457 358.159 22.4193 360.285 23.2745Z" stroke="black" stroke-opacity="0.5" stroke-linecap="round"/>
<defs>
<linearGradient id="paint0_linear_155_1014" x1="341.304" y1="405.024" x2="283.135" y2="116.226" gradientUnits="userSpaceOnUse">
<stop stop-color="#83FF00"/>
<stop offset="0.616422" stop-color="#3B9E03" stop-opacity="0.363631"/>
<stop offset="1" stop-color="#126704" stop-opacity="0"/>
</linearGradient>
<linearGradient id="paint1_linear_155_1014" x1="306.435" y1="203.9" x2="302.956" y2="235.987" gradientUnits="userSpaceOnUse">
<stop/>
<stop offset="1" stop-opacity="0"/>
</linearGradient>
</defs>
</svg>
