<svg width="95" height="76" viewBox="0 0 95 76" fill="none" xmlns="http://www.w3.org/2000/svg">
<path d="M30.5939 75.1257L1.11008 45.6462C0.399369 44.9355 0 43.9709 0 42.9658C0 41.9606 0.399369 40.996 1.11008 40.2853L6.47011 34.9253C7.18082 34.2146 8.14455 33.8152 9.15056 33.8152C10.1557 33.8152 11.1194 34.2146 11.8301 34.9253L30.5941 53.6858L83.1699 1.11008C83.8814 0.399371 84.8443 0 85.8494 0C86.8546 0 87.8192 0.399371 88.5299 1.11008L93.8899 6.47011C94.6006 7.18082 95 8.14539 95 9.15055C95 10.1557 94.6006 11.1203 93.8899 11.831L30.5939 75.1257Z" fill="#126704"/>
</svg>
