<svg width="364" height="351" viewBox="0 0 364 351" fill="none" xmlns="http://www.w3.org/2000/svg">
<path fill-rule="evenodd" clip-rule="evenodd" d="M275.668 16.2632C294.52 7.6747 317.59 3.25892 347.262 5.37364C365.171 19.3137 368.479 53.0479 358.287 67.9683C333.494 104.259 272.851 57.3138 253.639 89.7394C299.222 106.062 343.736 94.4874 355.54 144.167C359.402 160.436 357.475 188.523 355.54 212.194C352.625 247.816 359.361 291.852 339.013 304.723C310.219 262.404 367.212 156.657 311.473 119.673C294.52 125.734 280.006 117.482 259.141 119.673C254.442 131.365 253.372 146.622 253.639 163.216C260.424 168.292 273.224 167.437 278.411 174.101C286.787 215.354 290.965 279.938 270.153 312.886C260.851 270.73 278.235 218.887 264.651 182.264C208.215 191.359 168.802 188.706 107.667 201.313C90.9554 221.366 100.668 250.721 74.6129 261.185C78.8727 286.375 87.2162 317.699 80.1273 345.535C70.6851 349.813 55.4208 353.524 44.3263 348.261C33.7319 319.449 58.1186 290.285 52.5836 266.618C47.3069 257.332 27.3523 262.522 14.0274 261.185C-16.661 219.316 9.53789 173.574 30.5503 138.722C72.4112 105.174 147.437 121.095 195.796 95.1841C197.875 77.7033 184.497 75.5035 179.269 65.246C148.068 66.3479 141.381 85.8097 118.679 84.2986C64.6253 80.7012 89.6188 8.30669 140.713 8.10008C155.157 8.04741 165.272 15.8257 176.518 24.4304C196.772 3.33184 251.978 -12.3016 275.668 16.2632ZM195.8 43.479C196.3 67.7131 236.652 81.2684 256.382 59.8052C263.06 9.16554 195.005 4.97257 195.8 43.479ZM347.262 51.6381C348.332 10.6078 304.032 14.6751 278.411 27.1528C279.629 36.5029 277.324 42.4014 275.668 48.9238C297.308 52.8048 331.206 74.6609 347.262 51.6381ZM104.916 32.5935C89.5286 81.6046 178.925 73.9276 179.273 35.3118C150.212 32.8973 128.044 11.3653 104.916 32.5935ZM217.834 92.4577C225.177 92.4577 232.516 92.4577 239.867 92.4577C241.872 79.3278 217.53 83.4965 217.834 92.4577ZM204.062 111.51C206.247 120.091 214.865 153.237 204.062 168.656C218.428 177.617 218.682 160.704 234.352 163.216C242.241 142.883 234.689 118.726 223.336 108.788C216.017 108.812 207.612 107.763 204.062 111.51ZM179.273 122.396C143.251 121.715 85.7976 133.755 47.0773 141.44C27.4712 161.405 15.5075 199.23 19.5378 233.965C35.4006 240.974 55.5151 243.765 77.3721 244.855C84.9079 232.341 82.0994 209.618 88.3888 195.864C111.722 179.675 151.721 178.898 182.028 176.819C195.509 166.521 198.035 129.368 179.273 122.396ZM60.8492 337.376C71.1607 322.589 64.2481 300.862 60.8492 285.674C58.2006 297.285 47.844 328.192 60.8492 337.376Z" fill="black" fill-opacity="0.6"/>
<path fill-rule="evenodd" clip-rule="evenodd" d="M121.438 133.278C117.186 141.882 104.985 153.724 93.8984 146.885C96.2969 135.652 107.683 133.29 121.438 133.278Z" fill="black" fill-opacity="0.6"/>
<path fill-rule="evenodd" clip-rule="evenodd" d="M88.3881 141.44C75.5839 158.727 50.8363 164.208 44.3256 187.701C26.1462 170.678 54.2885 133.533 88.3881 141.44Z" fill="black" fill-opacity="0.6"/>
</svg>
