<svg width="52" height="52" viewBox="0 0 52 52" fill="none" xmlns="http://www.w3.org/2000/svg">
<path d="M25.5625 10.3794C28.0163 7.61078 31.638 6 35.7188 6C39.273 6.0043 42.6804 7.41812 45.1936 9.93135C47.7069 12.4446 49.1207 15.852 49.125 19.4062C49.125 34.1003 27.6323 45.8409 26.7183 46.3345C26.3631 46.5258 25.9659 46.626 25.5625 46.626C25.1591 46.626 24.7619 46.5258 24.4067 46.3345C23.4927 45.8409 2 34.1003 2 19.4062C2.0043 15.852 3.41812 12.4446 5.93135 9.93135C8.44458 7.41812 11.852 6.0043 15.4062 6C19.487 6 23.1087 7.61078 25.5625 10.3794Z" fill="#FF6161"/>
</svg>
