<svg width="52" height="52" viewBox="0 0 52 52" fill="none" xmlns="http://www.w3.org/2000/svg">
<path d="M26.6851 11.3743C28.8357 8.94765 32.0384 7.50024 35.7178 7.5C38.8745 7.50405 41.9008 8.75985 44.133 10.992C46.3654 13.2244 47.6212 16.251 47.625 19.4081C47.6241 26.0584 42.7115 32.2794 37.2729 37.07C31.9117 41.7925 26.4259 44.7877 26.0059 45.0145C25.8696 45.0877 25.7172 45.126 25.5625 45.126C25.4079 45.126 25.2557 45.0877 25.1194 45.0147C24.7019 44.7892 19.2147 41.7937 13.8521 37.07C8.41327 32.2792 3.50046 26.0578 3.5 19.4072C3.50405 16.2505 4.75985 13.2242 6.99201 10.992C9.22417 8.75985 12.2505 7.50405 15.4072 7.5C19.0866 7.50024 22.2893 8.94766 24.4399 11.3743C24.7246 11.6955 25.1333 11.8794 25.5625 11.8794C25.9917 11.8794 26.4004 11.6955 26.6851 11.3743Z" stroke="#FF6161" stroke-width="3" stroke-linejoin="round"/>
</svg>
