<svg width="28" height="22" viewBox="0 0 28 22" fill="none" xmlns="http://www.w3.org/2000/svg">
<path d="M24.7692 0.5H3.23077C2.37392 0.5 1.55216 0.843318 0.94627 1.45443C0.340384 2.06554 0 2.89438 0 3.75862V18.2414C0 19.1056 0.340384 19.9345 0.94627 20.5456C1.55216 21.1567 2.37392 21.5 3.23077 21.5H24.7692C25.6261 21.5 26.4478 21.1567 27.0537 20.5456C27.6596 19.9345 28 19.1056 28 18.2414V3.75862C28 2.89438 27.6596 2.06554 27.0537 1.45443C26.4478 0.843318 25.6261 0.5 24.7692 0.5ZM24.1662 2.67241L14.6462 9.91379C14.4571 10.0484 14.2314 10.1207 14 10.1207C13.7686 10.1207 13.5429 10.0484 13.3538 9.91379L3.83385 2.67241H24.1662ZM24.7692 19.3276H3.23077C2.94631 19.3238 2.67454 19.2082 2.47338 19.0053C2.27222 18.8024 2.15757 18.5283 2.15385 18.2414V4.12069L12.0615 11.6228C12.6244 12.0371 13.3032 12.2604 14 12.2604C14.6968 12.2604 15.3756 12.0371 15.9385 11.6228L25.8462 4.12069V18.2414C25.8424 18.5283 25.7278 18.8024 25.5266 19.0053C25.3255 19.2082 25.0537 19.3238 24.7692 19.3276Z" fill="black"/>
</svg>
