<svg width="30" height="30" viewBox="0 0 30 30" fill="none" xmlns="http://www.w3.org/2000/svg">
<path fill-rule="evenodd" clip-rule="evenodd" d="M15 0.714355C23.3079 0.714355 30 6.83562 30 14.3032C30 21.7708 23.3079 27.8921 15 27.8921C13.0493 27.8921 11.1851 27.5534 9.47721 26.9402L5.00233 29.1757C4.65488 29.3485 4.24046 29.3165 3.92372 29.0893C3.60837 28.8635 3.44512 28.4802 3.49814 28.0956L4.12047 23.6565C1.5614 21.2147 0 17.9199 0 14.3032C0 6.83562 6.69209 0.714355 15 0.714355ZM15 2.80495C7.90465 2.80495 2.09302 7.92551 2.09302 14.3032C2.09302 17.5046 3.56651 20.3952 5.92465 22.4747C6.18837 22.706 6.31814 23.0544 6.2693 23.4029L5.84651 26.4161L8.95116 24.8663C9.21628 24.7339 9.52605 24.72 9.80232 24.8287C11.3944 25.4544 13.1526 25.8015 15 25.8015C22.0953 25.8015 27.907 20.6809 27.907 14.3032C27.907 7.92551 22.0953 2.80495 15 2.80495Z" fill="black"/>
<path fill-rule="evenodd" clip-rule="evenodd" d="M8.56181 18.7238C8.40135 18.8492 8.17251 18.8394 8.02321 18.7028C7.87251 18.5649 7.84321 18.3391 7.95344 18.1677C9.22321 16.1927 11.0986 13.2798 12.1395 11.6617C12.3418 11.3481 12.6627 11.1279 13.0283 11.0513C13.3953 10.9746 13.7762 11.0485 14.0874 11.2562C14.8283 11.7495 15.7576 12.3683 16.3855 12.7865C16.8195 13.075 17.3804 13.0987 17.8367 12.845C18.8246 12.2973 20.5911 11.3161 21.8623 10.6109C22.0311 10.5175 22.2432 10.5509 22.3744 10.6931C22.5041 10.8352 22.5209 11.0471 22.4148 11.2088C21.3069 12.8673 19.5097 15.56 18.5134 17.0527C18.106 17.6631 17.2967 17.8541 16.6604 17.4903C15.7604 16.976 14.5213 16.2694 13.7176 15.8109C13.2279 15.5307 12.6153 15.5739 12.1688 15.921C11.2883 16.6053 9.78274 17.776 8.56181 18.7238Z" fill="black"/>
</svg>
