<svg width="114" height="100" viewBox="0 0 114 100" fill="none" xmlns="http://www.w3.org/2000/svg">
<path d="M3.50815e-05 64.9327C3.18922e-05 28.4509 33.6908 6.22413 38.9234 3.45085C42.7133 1.38673 46.2219 8.45292e-05 48.6248 8.43191e-05C50.7186 8.41361e-05 52.1056 1.01949 52.1056 2.7721C52.1056 4.52471 50.3512 6.5901 48.6248 7.97547C43.7887 11.4528 30.21 29.5247 30.21 46.5493C30.21 51.0461 32.6433 55.2035 35.4147 56.6167C38.5548 58.3414 53.1519 61.4807 53.1519 79.8628C53.1519 90.6381 44.4676 99.9976 32.3038 99.9976C16.3223 100 3.70866e-05 87.8686 3.50815e-05 64.9327Z" fill="#BEBEBE"/>
<path d="M60.8178 64.9326C60.8178 28.4508 94.5377 6.22404 99.7424 3.45076C103.563 1.38664 107.041 6.0838e-07 109.473 3.95768e-07C111.565 2.12833e-07 112.925 1.0194 112.925 2.77201C112.925 4.52462 111.201 6.59001 109.473 7.97539C104.609 11.4527 91.0594 29.5246 91.0594 46.5492C91.0594 51.046 93.4914 55.2034 96.2641 56.6166C99.4042 58.3439 114 61.4819 114 79.8653C114 90.6405 105.287 100 93.1228 100C77.1679 100 60.8178 87.8685 60.8178 64.9326Z" fill="#BEBEBE"/>
</svg>
