<svg width="28" height="14" viewBox="0 0 28 14" fill="none" xmlns="http://www.w3.org/2000/svg">
<path d="M21.5747 0.574707H17.6252C17.1536 0.574707 16.7999 0.957865 16.7999 1.39997C16.7999 1.84208 17.1831 2.22523 17.6252 2.22523H21.5747C24.1978 2.22523 26.3494 4.37681 26.3494 6.99997C26.3494 9.62313 24.1978 11.7747 21.5747 11.7747H17.6252C17.1536 11.7747 16.7999 12.1579 16.7999 12.6C16.7999 13.0715 17.1831 13.4252 17.6252 13.4252H21.5747C25.1115 13.4252 27.9999 10.5368 27.9999 6.99997C27.9999 3.46313 25.1115 0.574707 21.5747 0.574707Z" fill="black"/>
<path d="M10.3747 11.7747H6.42526C3.8021 11.7747 1.65053 9.62313 1.65053 6.99997C1.65053 4.37681 3.8021 2.22523 6.42526 2.22523H10.3747C10.8463 2.22523 11.2 1.84208 11.2 1.39997C11.2 0.957865 10.8168 0.574707 10.3747 0.574707H6.42526C2.88842 0.574707 0 3.46313 0 6.99997C0 10.5368 2.88842 13.4252 6.42526 13.4252H10.3747C10.8463 13.4252 11.2 13.0421 11.2 12.6C11.2 12.1284 10.8463 11.7747 10.3747 11.7747Z" fill="black"/>
<path d="M6.83789 6.99982C6.83789 7.4714 7.22105 7.82509 7.66315 7.82509H20.3368C20.8084 7.82509 21.1621 7.44193 21.1621 6.99982C21.1621 6.52824 20.7789 6.17456 20.3368 6.17456H7.66315C7.19157 6.17456 6.83789 6.52824 6.83789 6.99982Z" fill="black"/>
</svg>
