<svg width="30" height="30" viewBox="0 0 30 30" fill="none" xmlns="http://www.w3.org/2000/svg">
<path d="M14.9997 0.833252C7.17967 0.833252 0.833008 7.17992 0.833008 14.9999C0.833008 22.8199 7.17967 29.1666 14.9997 29.1666C22.8197 29.1666 29.1663 22.8199 29.1663 14.9999C29.1663 7.17992 22.8197 0.833252 14.9997 0.833252ZM21.573 10.4666C21.3605 12.7049 20.4397 18.1449 19.9722 20.6524C19.7738 21.7149 19.3772 22.0691 19.0088 22.1116C18.1872 22.1824 17.5638 21.5733 16.7705 21.0491C15.5238 20.2274 14.8155 19.7174 13.6113 18.9241C12.2088 18.0033 13.1155 17.4933 13.923 16.6716C14.1355 16.4591 17.7622 13.1583 17.833 12.8608C17.8428 12.8157 17.8415 12.7689 17.8292 12.7245C17.8169 12.68 17.7938 12.6393 17.7622 12.6058C17.6772 12.5349 17.5638 12.5633 17.4647 12.5774C17.3372 12.6058 15.3538 13.9233 11.4863 16.5299C10.9197 16.9124 10.4097 17.1108 9.95634 17.0966C9.44634 17.0824 8.48301 16.8133 7.76051 16.5724C6.86801 16.2891 6.17384 16.1333 6.23051 15.6374C6.25884 15.3824 6.61301 15.1274 7.27884 14.8583C11.4155 13.0591 14.1638 11.8691 15.538 11.3024C19.4763 9.65909 20.2838 9.37575 20.8222 9.37575C20.9355 9.37575 21.2047 9.40409 21.3747 9.54575C21.5163 9.65909 21.5588 9.81492 21.573 9.92825C21.5588 10.0133 21.5872 10.2683 21.573 10.4666Z" fill="black"/>
</svg>
