<svg width="34" height="34" viewBox="0 0 34 34" fill="none" xmlns="http://www.w3.org/2000/svg">
<path d="M26.9875 6.95584C25.6887 5.6439 24.1417 4.6037 22.4367 3.89591C20.7316 3.18812 18.9028 2.82691 17.0567 2.83334C9.32167 2.83334 3.01751 9.1375 3.01751 16.8725C3.01751 19.3517 3.66917 21.76 4.88751 23.885L2.90417 31.1667L10.3417 29.2117C12.3958 30.3308 14.705 30.9258 17.0567 30.9258C24.7917 30.9258 31.0958 24.6217 31.0958 16.8867C31.0958 13.1325 29.6367 9.605 26.9875 6.95584ZM17.0567 28.5458C14.96 28.5458 12.9058 27.9792 11.1067 26.9167L10.6817 26.6617L6.26168 27.8233L7.43751 23.5167L7.15418 23.0775C5.98932 21.2174 5.37079 19.0673 5.36917 16.8725C5.36917 10.4408 10.6108 5.19917 17.0425 5.19917C20.1592 5.19917 23.0917 6.4175 25.2875 8.6275C26.3748 9.70978 27.2364 10.9971 27.8225 12.4149C28.4086 13.8326 28.7074 15.3526 28.7017 16.8867C28.73 23.3183 23.4883 28.5458 17.0567 28.5458ZM23.46 19.8192C23.1058 19.6492 21.3775 18.7992 21.0658 18.6717C20.74 18.5583 20.5133 18.5017 20.2725 18.8417C20.0317 19.1958 19.3658 19.9892 19.1675 20.2158C18.9692 20.4567 18.7567 20.485 18.4025 20.3008C18.0483 20.1308 16.915 19.7483 15.5833 18.5583C14.535 17.6233 13.8408 16.4758 13.6283 16.1217C13.43 15.7675 13.6 15.5833 13.7842 15.3992C13.94 15.2433 14.1383 14.9883 14.3083 14.79C14.4783 14.5917 14.5492 14.4358 14.6625 14.2092C14.7758 13.9683 14.7192 13.77 14.6342 13.6C14.5492 13.43 13.8408 11.7017 13.5575 10.9933C13.2742 10.3133 12.9767 10.3983 12.7642 10.3842H12.0842C11.8433 10.3842 11.475 10.4692 11.1492 10.8233C10.8375 11.1775 9.93084 12.0275 9.93084 13.7558C9.93084 15.4842 11.1917 17.1558 11.3617 17.3825C11.5317 17.6233 13.8408 21.165 17.3542 22.6808C18.19 23.0492 18.8417 23.2617 19.3517 23.4175C20.1875 23.6867 20.9525 23.6442 21.5617 23.5592C22.2417 23.46 23.6442 22.7092 23.9275 21.8875C24.225 21.0658 24.225 20.3717 24.1258 20.2158C24.0267 20.06 23.8142 19.9892 23.46 19.8192Z" fill="black"/>
</svg>
